<?xml version="1.0" standalone="no"?>
<!DOCTYPE svg PUBLIC "-//W3C//DTD SVG 20010904//EN"
 "http://www.w3.org/TR/2001/REC-SVG-20010904/DTD/svg10.dtd">
<svg version="1.0" xmlns="http://www.w3.org/2000/svg"
 width="5000.000000pt" height="5000.000000pt" viewBox="0 0 5000.000000 5000.000000"
 preserveAspectRatio="xMidYMid meet">
<metadata>
Created by potrace 1.14, written by Peter Selinger 2001-2017
</metadata>
<g transform="translate(0.000000,5000.000000) scale(0.100000,-0.100000)"
fill="#000000" stroke="none">
<path d="M24670 49883 c-3415 -42 -6837 -808 -9945 -2226 -248 -113 -812 -384
-929 -446 -39 -21 -156 -82 -261 -136 -718 -370 -1548 -862 -2290 -1356 -1820
-1212 -3511 -2694 -4949 -4337 -2620 -2996 -4465 -6516 -5425 -10347 -615
-2459 -847 -5026 -686 -7610 181 -2895 884 -5768 2061 -8428 1470 -3319 3649
-6277 6394 -8683 2365 -2071 5104 -3679 8055 -4729 3300 -1173 6800 -1630
10335 -1349 4463 355 8755 1924 12415 4538 3974 2838 7027 6766 8788 11306
924 2384 1477 4944 1622 7510 50 889 51 1904 5 2775 -280 5194 -2177 10142
-5449 14210 -1041 1295 -2219 2493 -3496 3556 -1945 1619 -4116 2929 -6446
3889 -2641 1089 -5424 1705 -8314 1840 -245 11 -1096 31 -1220 28 -44 -2 -163
-4 -265 -5z m1360 -263 c355 -16 710 -38 1040 -66 3857 -318 7571 -1542 10870
-3582 2618 -1619 4925 -3725 6775 -6187 1232 -1638 2236 -3387 3033 -5280 370
-879 729 -1908 986 -2825 729 -2600 1024 -5272 881 -7975 -207 -3907 -1337
-7684 -3308 -11060 -828 -1416 -1789 -2740 -2890 -3977 -528 -594 -1244 -1318
-1832 -1853 -3136 -2852 -6935 -4845 -11035 -5789 -3806 -876 -7814 -832
-11595 128 -3828 973 -7372 2860 -10330 5501 -695 621 -1427 1354 -2041 2045
-1759 1981 -3202 4257 -4240 6686 -1567 3670 -2210 7671 -1878 11684 512 6188
3358 11947 7984 16156 1952 1777 4187 3236 6592 4305 1407 625 2939 1137 4423
1478 1592 366 3138 565 4805 621 316 10 1457 4 1760 -10z"/>
<path d="M24836 47448 c-3 -29 -18 -212 -32 -407 -20 -270 -23 -355 -14 -361
6 -4 60 -10 118 -14 59 -3 136 -9 171 -13 l64 -6 -7 -86 c-42 -553 -120 -977
-251 -1367 -89 -267 -178 -458 -329 -708 l-71 -118 -75 6 c-222 18 -339 -55
-379 -236 -11 -49 -114 -1328 -108 -1335 8 -7 866 -67 873 -60 4 3 18 154 31
334 26 352 33 384 85 412 24 14 131 7 1065 -63 571 -42 1060 -80 1088 -83 36
-5 57 -14 77 -34 26 -25 28 -34 27 -101 0 -40 -10 -201 -23 -358 -13 -157 -20
-288 -17 -291 3 -3 179 -18 391 -33 212 -15 408 -30 435 -33 l51 -5 48 663
c54 727 54 744 1 834 -44 77 -181 135 -315 135 -34 0 -52 5 -56 14 -3 7 42
642 101 1410 68 899 103 1414 99 1448 -22 173 -126 272 -314 298 -53 7 -2681
210 -2724 210 -3 0 -7 -24 -10 -52z m1627 -902 c346 -27 372 -33 392 -90 7
-20 -14 -340 -74 -1139 -46 -612 -86 -1114 -88 -1116 -4 -5 -1134 76 -1190 85
l-32 5 46 77 c265 445 459 1133 538 1904 8 81 15 167 15 191 0 25 3 59 6 76 8
38 -21 38 387 7z"/>
<path d="M20925 47068 c-65 -9 -2492 -572 -2499 -579 -5 -5 178 -786 186 -794
2 -3 82 12 176 33 151 34 172 37 176 23 3 -9 147 -628 320 -1377 214 -928 322
-1378 340 -1415 37 -79 79 -124 144 -156 50 -25 68 -28 147 -27 80 1 196 25
1054 223 531 123 989 232 1018 243 156 58 235 184 219 347 -5 49 -182 839
-190 848 -5 6 -850 -195 -853 -203 -2 -6 8 -57 22 -115 14 -57 25 -115 25
-129 0 -36 -33 -85 -66 -98 -16 -6 -159 -41 -319 -78 -260 -59 -294 -65 -328
-54 -23 7 -45 22 -55 39 -25 42 -169 661 -155 669 6 4 255 63 552 131 339 78
541 129 541 137 0 14 -181 788 -185 792 -2 2 -249 -54 -550 -124 -393 -91
-549 -123 -554 -115 -10 16 -165 700 -160 704 2 2 129 32 283 66 370 84 364
85 411 -116 14 -60 27 -113 29 -119 3 -7 154 23 431 87 235 54 428 99 429 101
6 7 -183 796 -203 849 -44 115 -113 180 -218 205 -65 15 -82 15 -168 2z"/>
<path d="M29397 47013 c-76 -256 -209 -744 -205 -749 3 -3 79 -26 169 -50 90
-25 165 -47 167 -49 2 -1 -166 -605 -373 -1341 -207 -737 -381 -1371 -386
-1410 -26 -170 44 -287 213 -358 35 -14 491 -146 1013 -292 902 -253 955 -266
1040 -268 73 -1 99 3 135 20 64 30 118 88 156 169 28 60 244 801 244 839 0 11
-773 235 -826 239 -14 2 -24 -20 -49 -110 -38 -133 -53 -159 -104 -174 -36
-11 -60 -5 -332 71 -312 87 -342 98 -359 131 -21 39 -11 96 65 369 95 344 94
340 109 340 6 0 252 -67 546 -149 294 -82 537 -148 539 -145 6 6 222 786 219
789 -2 1 -243 69 -536 151 -294 82 -538 152 -543 155 -7 4 173 692 185 706 4
5 553 -155 575 -167 13 -6 29 -27 37 -46 16 -37 14 -49 -30 -207 -18 -64 -22
-89 -13 -92 32 -11 841 -234 842 -232 12 22 219 795 226 841 25 181 -58 302
-255 373 -23 8 -576 165 -1231 349 -654 184 -1198 337 -1207 340 -13 4 -20 -6
-31 -43z"/>
<path d="M33360 45817 c-20 -6 -61 -37 -96 -71 -57 -57 -73 -86 -257 -453
-108 -216 -197 -396 -197 -400 0 -8 750 -387 755 -381 1 2 25 48 53 104 55
110 96 154 143 154 28 0 359 -158 359 -171 0 -3 -319 -636 -710 -1405 -390
-769 -708 -1398 -707 -1399 1 -1 199 -102 439 -223 320 -163 439 -219 445
-210 4 7 324 636 711 1397 386 762 705 1387 708 1390 3 3 79 -32 170 -77 225
-114 231 -128 138 -313 -30 -61 -54 -112 -52 -114 2 -1 173 -88 380 -192 l378
-190 194 381 c106 210 202 406 212 436 42 128 14 228 -90 312 -42 33 -428 234
-1389 721 -733 372 -1360 685 -1394 696 -67 23 -137 25 -193 8z"/>
<path d="M16260 45568 c-447 -24 -925 -213 -1284 -508 -88 -72 -238 -223 -307
-310 -308 -384 -468 -892 -430 -1370 62 -787 552 -1483 1259 -1787 676 -292
1478 -180 2108 293 106 80 280 249 363 353 358 450 507 1025 411 1586 -114
667 -503 1224 -1062 1520 -327 173 -667 244 -1058 223z m115 -938 c503 -53
906 -455 999 -995 20 -115 20 -309 1 -416 -81 -434 -376 -741 -800 -830 -33
-7 -120 -13 -195 -12 -151 1 -260 23 -402 83 -178 74 -392 254 -506 425 -161
242 -229 471 -219 740 6 170 35 294 102 431 169 348 498 559 910 582 11 1 61
-3 110 -8z"/>
<path d="M12245 43259 c-189 -24 -414 -115 -579 -234 -39 -28 -411 -318 -826
-644 -415 -327 -756 -595 -756 -595 -1 -1 114 -148 255 -327 l256 -325 139
109 c98 78 143 107 152 101 8 -5 446 -558 974 -1229 528 -671 964 -1221 968
-1222 6 -2 736 567 765 596 5 5 -157 220 -364 482 -204 260 -373 480 -375 489
-2 10 80 79 243 205 275 212 391 321 480 452 152 222 215 423 216 683 1 278
-76 525 -243 780 -321 488 -808 742 -1305 679z m126 -959 c167 -52 349 -240
420 -435 17 -46 23 -83 23 -160 1 -93 -1 -105 -31 -167 -17 -37 -53 -91 -80
-119 -51 -54 -354 -299 -371 -299 -10 0 -660 821 -667 843 -4 12 259 227 349
285 109 70 240 89 357 52z"/>
<path d="M37530 43033 c-576 -62 -1106 -397 -1460 -923 -247 -368 -370 -756
-371 -1169 0 -269 47 -504 150 -746 103 -242 248 -452 461 -665 308 -309 662
-513 1066 -616 257 -65 538 -88 769 -64 66 6 121 13 121 13 2 3 42 862 41 863
-1 1 -47 -2 -102 -7 -258 -23 -583 35 -821 146 -336 156 -547 394 -631 710
-23 89 -26 119 -27 275 -1 192 9 258 66 420 64 181 166 338 318 491 156 157
303 248 486 301 69 20 100 23 249 22 154 0 178 -3 255 -26 232 -72 441 -212
586 -392 112 -140 160 -265 140 -371 -5 -23 -36 -74 -87 -141 -43 -57 -79
-106 -79 -108 0 -5 676 -537 685 -539 4 -1 85 97 181 218 191 241 253 346 279
470 68 328 -118 747 -515 1159 -355 368 -797 601 -1271 670 -98 15 -388 20
-489 9z"/>
<path d="M24473 41443 l-112 -4 5 -72 c3 -40 7 -103 10 -142 l5 -70 141 3 141
3 -7 67 c-3 37 -6 102 -6 145 l0 77 -32 -2 c-18 -1 -83 -4 -145 -5z"/>
<path d="M24960 41310 l0 -140 25 0 25 0 0 140 0 140 -25 0 -25 0 0 -140z"/>
<path d="M25020 41311 l0 -138 61 -7 c34 -3 97 -6 140 -6 l79 0 0 48 c0 26 3
91 7 145 l6 97 -146 0 -147 0 0 -139z"/>
<path d="M25606 41305 c-4 -76 -5 -140 -3 -142 5 -4 270 -23 274 -19 1 1 6 66
9 144 l7 142 -74 0 c-41 0 -104 3 -140 6 l-66 7 -7 -138z"/>
<path d="M23870 41411 l-85 -6 2 -100 c1 -55 5 -119 8 -143 6 -40 8 -43 33
-38 15 3 77 8 137 11 l110 7 -7 111 c-3 62 -7 124 -7 140 -1 30 0 30 -191 18z"/>
<path d="M26196 41363 c-3 -26 -8 -89 -12 -140 -6 -91 -6 -92 17 -97 23 -5
252 -25 256 -22 6 4 25 258 20 269 -4 10 -30 17 -84 21 -43 3 -103 9 -134 12
l-57 6 -6 -49z"/>
<path d="M23370 41370 c-41 -4 -99 -11 -128 -15 l-53 -7 5 -37 c3 -20 11 -81
17 -136 6 -55 12 -101 13 -103 5 -4 254 21 265 27 7 5 6 50 -4 141 -8 74 -15
136 -15 138 0 1 -6 1 -12 1 -7 -1 -47 -5 -88 -9z"/>
<path d="M26786 41338 c-6 -19 -28 -260 -24 -262 2 -2 50 -8 108 -15 58 -7
119 -14 136 -17 l31 -6 15 139 c8 76 14 140 12 142 -4 4 -210 30 -247 31 -15
0 -29 -6 -31 -12z"/>
<path d="M22720 41293 c-63 -8 -116 -16 -116 -17 -7 -6 45 -281 52 -280 5 1
65 10 134 19 69 9 127 18 128 20 2 2 -3 59 -12 127 -9 68 -16 129 -16 136 0
15 -23 14 -170 -5z"/>
<path d="M27370 41273 c0 -5 -9 -66 -20 -138 -10 -71 -18 -130 -17 -132 4 -3
272 -42 274 -39 5 5 43 269 40 273 -4 3 -249 43 -268 43 -5 0 -9 -3 -9 -7z"/>
<path d="M22132 41198 c-93 -17 -112 -24 -108 -37 3 -9 15 -70 27 -136 12 -66
22 -121 23 -122 3 -3 267 44 271 49 3 2 -6 63 -18 134 l-23 129 -29 2 c-17 1
-81 -8 -143 -19z"/>
<path d="M27929 41050 l-25 -139 45 -10 c93 -21 223 -42 228 -37 7 7 52 224
53 252 0 18 -13 22 -122 43 -68 13 -130 25 -138 27 -12 3 -20 -24 -41 -136z"/>
<path d="M21582 41089 c-74 -15 -135 -29 -136 -31 -2 -1 11 -63 27 -135 25
-108 34 -133 48 -133 16 0 251 49 255 53 4 4 -51 265 -56 270 -3 2 -65 -9
-138 -24z"/>
<path d="M28530 41066 c0 -2 -11 -58 -25 -126 -14 -68 -25 -128 -25 -135 0
-11 256 -72 265 -63 7 7 66 261 61 265 -4 5 -252 63 -267 63 -5 0 -9 -2 -9 -4z"/>
<path d="M21000 40957 c-69 -17 -126 -32 -127 -32 -3 -1 66 -267 70 -271 2 -2
54 10 116 26 63 17 122 30 132 30 11 0 19 7 19 15 0 38 -64 265 -74 264 -6 -1
-67 -15 -136 -32z"/>
<path d="M29072 40799 c-18 -73 -31 -133 -30 -134 2 -2 55 -17 119 -34 64 -17
123 -33 131 -36 12 -5 23 21 53 130 21 74 36 137 34 139 -6 6 -244 66 -260 66
-10 0 -24 -39 -47 -131z"/>
<path d="M20440 40806 c-58 -17 -113 -35 -122 -38 -14 -6 -12 -21 22 -131 21
-69 39 -129 41 -135 3 -8 253 59 265 71 2 1 -13 62 -33 135 -28 98 -41 132
-52 131 -9 0 -63 -15 -121 -33z"/>
<path d="M29636 40649 c-21 -72 -34 -135 -30 -139 11 -9 254 -84 258 -79 1 2
20 63 43 134 l40 130 -111 36 c-182 59 -156 69 -200 -82z"/>
<path d="M40838 40697 c-31 -13 -76 -38 -100 -56 -67 -49 -657 -565 -655 -573
1 -3 117 -138 258 -300 141 -161 266 -304 277 -318 l20 -24 73 65 c113 100
128 109 170 109 20 0 44 -3 53 -6 9 -3 70 -69 137 -146 118 -136 121 -140 103
-157 -11 -10 -541 -472 -1179 -1026 -638 -554 -1164 -1011 -1169 -1016 -9 -8
631 -752 644 -747 4 2 538 464 1185 1028 648 564 1181 1025 1185 1025 9 0 224
-245 239 -272 6 -12 11 -41 11 -64 0 -45 -10 -58 -140 -170 l-64 -56 255 -294
c141 -162 267 -307 280 -322 l24 -29 295 257 c162 141 317 278 343 303 63 62
104 126 118 188 15 64 -5 138 -58 217 -44 64 -1924 2229 -1997 2298 -105 101
-205 129 -308 86z"/>
<path d="M8991 40688 c-39 -15 -76 -42 -132 -97 -76 -73 -1699 -1959 -1699
-1973 0 -3 139 -126 309 -272 l310 -265 116 134 c64 74 118 135 121 135 2 0
478 -406 1057 -903 579 -497 1074 -918 1101 -937 138 -94 268 -94 393 1 53 39
769 865 886 1020 186 248 313 523 353 764 33 204 3 432 -80 608 -154 323 -501
622 -834 718 -375 107 -784 -38 -1185 -421 -58 -55 -194 -204 -303 -330 -108
-127 -200 -230 -203 -230 -5 0 -492 418 -529 454 -10 10 20 50 154 207 212
248 241 278 279 285 46 8 81 -10 178 -93 l89 -76 23 24 c50 51 545 632 545
640 0 11 -592 518 -656 561 -101 68 -196 83 -293 46z m1528 -2018 c132 -25
274 -137 339 -268 34 -70 37 -83 37 -161 0 -127 -26 -174 -217 -396 -85 -99
-164 -188 -175 -198 -33 -29 -87 -33 -127 -9 -30 18 -479 394 -544 457 l-24
22 162 189 c259 302 288 328 400 358 67 18 83 19 149 6z"/>
<path d="M19865 40628 c-66 -22 -121 -42 -122 -43 -4 -2 79 -249 86 -257 4 -5
246 64 268 77 2 1 -17 60 -41 131 -26 79 -48 130 -57 131 -8 1 -68 -17 -134
-39z"/>
<path d="M24385 40640 c-1119 -50 -2137 -197 -3186 -460 -4005 -1004 -7486
-3598 -9621 -7170 -1179 -1971 -1901 -4160 -2128 -6445 -86 -866 -98 -1820
-34 -2690 255 -3494 1658 -6749 4041 -9377 202 -223 798 -819 1021 -1021 1761
-1596 3794 -2752 6028 -3426 2040 -615 4210 -805 6344 -555 3139 368 6074
1675 8470 3773 384 337 920 862 1255 1231 751 826 1409 1721 1962 2670 1198
2055 1908 4348 2077 6710 53 735 53 1567 1 2275 -247 3324 -1507 6401 -3666
8957 -504 596 -1167 1263 -1775 1784 -1354 1161 -2945 2106 -4604 2737 -1523
578 -3022 895 -4720 997 -230 14 -1223 21 -1465 10z m1265 -120 c837 -36 1619
-130 2420 -290 3362 -672 6423 -2460 8686 -5075 2705 -3126 4041 -7158 3738
-11285 -124 -1705 -535 -3388 -1208 -4952 -162 -377 -456 -988 -475 -988 -5 0
-38 11 -75 25 -89 34 -201 62 -336 85 -62 11 -114 21 -116 23 -2 1 3 135 11
297 8 162 16 324 17 360 l3 65 40 8 c22 4 137 9 256 11 238 4 254 7 286 70 34
66 14 142 -48 188 -41 30 -180 41 -361 28 -88 -7 -161 -10 -164 -8 -4 5 17
1641 22 1647 3 4 149 27 287 46 124 17 177 157 96 250 -45 51 -85 58 -216 40
-59 -8 -122 -18 -139 -21 l-31 -6 -8 429 c-4 235 -10 516 -14 623 -4 107 -6
196 -5 198 1 2 134 25 294 52 285 47 293 49 323 79 26 25 31 40 35 89 4 57 2
62 -29 97 -50 53 -75 54 -373 5 -141 -23 -259 -41 -260 -39 -2 2 -9 99 -15
214 -6 116 -14 240 -17 277 l-6 66 -92 -71 c-50 -39 -160 -126 -245 -194 -165
-131 -195 -153 -701 -499 -391 -268 -448 -305 -635 -409 -220 -123 -763 -389
-1070 -524 -154 -68 -333 -150 -397 -182 -127 -64 -343 -158 -503 -220 l-101
-39 38 -327 c38 -332 161 -1475 198 -1833 25 -255 56 -688 75 -1075 8 -170 22
-411 30 -535 8 -124 29 -470 45 -770 17 -300 37 -635 45 -745 22 -301 43 -663
55 -925 5 -129 17 -336 26 -460 15 -205 15 -268 1 -708 -13 -401 -18 -486 -30
-495 -8 -7 -104 -84 -213 -172 -1805 -1454 -3932 -2496 -6174 -3025 -1565
-369 -3196 -496 -4805 -375 -2345 178 -4592 872 -6625 2047 -516 299 -1059
657 -1524 1005 l-103 78 -7 1975 c-7 1945 -5 2242 25 2650 17 245 78 945 99
1140 24 228 53 566 80 935 11 154 32 408 46 564 14 156 22 287 17 291 -4 3
-78 33 -163 65 -358 134 -614 242 -812 341 -48 24 -205 96 -350 159 -322 142
-927 441 -1143 565 -133 77 -450 288 -1013 677 -51 36 -182 135 -291 221 -109
86 -269 213 -356 282 -88 69 -223 187 -302 264 l-143 138 -1 -38 c0 -22 -4
-91 -9 -154 -11 -137 -37 -1154 -46 -1783 l-6 -449 -37 7 c-20 4 -117 33 -215
66 -165 54 -183 58 -219 48 -57 -15 -85 -36 -108 -80 -36 -71 -21 -151 39
-201 35 -29 163 -76 380 -138 89 -26 164 -49 166 -51 2 -2 6 -157 10 -344 3
-187 8 -416 11 -510 3 -93 10 -399 15 -680 5 -280 13 -558 16 -617 9 -171 -3
-158 -176 195 -873 1777 -1388 3678 -1535 5657 -48 658 -54 1431 -16 2064 219
3568 1614 6871 4026 9526 379 418 948 969 1390 1346 1310 1119 2774 2003 4365
2636 1605 638 3293 998 5050 1077 262 12 1033 12 1300 1z m12800 -22776 c122
-28 230 -63 230 -73 0 -19 -388 -693 -435 -757 -20 -26 -20 -24 2 417 12 244
22 445 22 447 1 5 68 -8 181 -34z"/>
<path d="M28155 37786 c-43 -19 -75 -58 -85 -102 -5 -20 -14 -113 -21 -206
-14 -194 1 -177 -139 -153 -213 36 -568 76 -895 99 -748 54 -1760 46 -2675
-19 -333 -24 -995 -87 -1057 -100 -20 -5 -21 -2 -25 100 l-3 105 -37 37 c-33
32 -44 37 -96 41 -114 8 -159 -39 -173 -181 -4 -50 -9 -103 -9 -117 l0 -26
-301 -43 c-165 -23 -303 -40 -306 -37 -3 3 -14 86 -25 183 -33 316 -34 322
-59 350 -34 36 -72 53 -119 53 -61 0 -107 -26 -137 -77 l-25 -44 11 -157 c7
-86 18 -204 25 -260 9 -74 10 -105 2 -108 -6 -2 -90 -17 -186 -34 -1617 -288
-3179 -763 -4348 -1321 l-143 -68 -11 27 c-5 15 -30 85 -54 156 -56 166 -83
196 -177 196 -79 0 -147 -69 -147 -148 0 -36 59 -226 96 -311 14 -30 23 -55
22 -56 -2 -1 -82 -45 -178 -98 -96 -53 -198 -110 -227 -127 l-52 -30 -147 175
c-90 106 -160 180 -180 190 -73 35 -154 7 -191 -65 -28 -55 -29 -95 -2 -139
17 -29 183 -233 241 -298 l20 -21 -139 -93 c-268 -179 -505 -359 -739 -560
-159 -138 -811 -781 -907 -896 -215 -257 -699 -926 -853 -1180 -11 -16 -17
-13 -71 39 -66 62 -93 73 -155 65 -75 -10 -128 -67 -136 -145 -6 -64 10 -94
106 -194 l76 -80 -30 -56 c-207 -391 -294 -561 -400 -783 -146 -306 -290 -629
-364 -814 -28 -71 -53 -131 -55 -133 -9 -9 -225 112 -339 190 -38 26 -83 50
-101 54 -43 8 -110 -21 -137 -59 -26 -36 -30 -111 -9 -150 17 -33 215 -164
366 -243 61 -31 112 -59 114 -61 5 -4 -169 -535 -179 -546 -11 -13 -186 38
-343 99 -148 57 -196 65 -250 39 -43 -21 -69 -59 -75 -111 -11 -103 20 -138
186 -203 70 -27 183 -66 252 -87 69 -20 127 -39 129 -40 2 -2 -28 -111 -67
-241 -146 -487 -229 -821 -362 -1463 -68 -330 -88 -418 -179 -805 -22 -93 -52
-235 -67 -315 -14 -80 -28 -146 -29 -148 -3 -4 -249 110 -394 183 -117 58
-140 66 -175 62 -76 -11 -136 -79 -136 -157 0 -97 40 -127 410 -298 124 -57
229 -108 234 -113 6 -5 -1 -109 -18 -261 -14 -139 -33 -332 -41 -428 -8 -96
-17 -189 -19 -205 l-4 -31 85 -17 c91 -19 481 -156 673 -237 271 -113 668
-257 1305 -472 849 -287 1091 -365 1325 -429 102 -27 259 -72 350 -99 91 -27
237 -68 325 -90 88 -22 241 -63 340 -90 188 -51 427 -111 431 -107 1 1 30 173
63 382 66 405 270 1443 352 1789 89 377 280 1071 380 1383 59 182 152 423 239
614 33 73 60 136 60 140 0 3 -30 19 -67 34 -140 58 -363 177 -493 263 -292
193 -487 428 -663 801 -115 245 -162 450 -161 706 1 357 60 576 222 820 145
218 306 361 553 489 168 88 275 132 394 164 98 26 106 27 400 27 322 0 342 -2
509 -57 245 -80 478 -227 684 -431 109 -108 154 -164 220 -274 l48 -81 54 45
c128 104 375 285 452 331 178 105 591 325 682 362 112 46 435 147 603 189 159
40 276 57 549 81 126 11 306 30 399 41 306 35 394 40 623 29 498 -23 776 -67
1132 -177 171 -53 223 -74 576 -233 368 -166 431 -202 590 -337 l66 -56 61 69
c136 155 246 243 597 480 384 259 574 347 981 458 333 91 528 128 994 190 358
48 494 59 680 59 535 0 1497 -213 1999 -442 38 -17 70 -30 71 -29 2 2 30 57
64 123 92 179 239 394 346 504 133 138 291 253 481 348 87 45 191 92 229 106
90 32 445 113 555 127 93 11 288 0 449 -25 303 -49 603 -236 853 -534 285
-339 403 -686 369 -1091 -24 -282 -62 -430 -160 -624 -122 -240 -228 -373
-482 -602 -151 -137 -263 -227 -377 -304 -45 -30 -81 -58 -82 -62 0 -5 41 -72
92 -150 193 -302 426 -723 551 -999 265 -582 468 -1213 657 -2034 46 -197 286
-1381 346 -1700 20 -110 38 -201 39 -203 2 -2 49 10 106 27 57 16 176 48 264
70 88 22 230 61 315 86 85 24 238 68 340 96 265 72 586 171 800 246 102 36
361 124 575 195 714 238 1055 361 1380 498 50 20 123 50 164 65 l74 28 -7 66
c-10 108 -51 338 -115 646 -33 160 -81 396 -106 525 -26 129 -80 386 -121 570
-62 275 -164 753 -164 765 0 5 84 37 214 81 166 56 206 92 206 187 0 58 -32
105 -90 135 -55 28 -69 26 -253 -35 -76 -25 -140 -43 -142 -41 -3 2 -18 71
-35 154 -55 264 -106 463 -255 983 -140 492 -177 602 -299 906 -31 76 -56 142
-56 146 0 4 82 69 183 144 100 76 192 149 205 164 77 89 31 229 -87 261 -65
17 -96 3 -263 -122 -87 -65 -162 -118 -166 -118 -5 0 -19 26 -32 58 -44 108
-167 357 -267 542 -211 389 -361 619 -676 1040 -153 203 -212 289 -206 300 4
8 63 75 130 149 l123 134 4 56 c3 46 0 62 -20 90 -51 74 -141 90 -216 38 -20
-15 -80 -74 -132 -131 l-95 -105 -79 87 c-244 267 -593 601 -935 895 -161 138
-520 430 -593 483 -15 10 -28 24 -28 30 0 6 32 60 71 119 40 60 75 122 79 139
20 95 -52 186 -148 186 -77 0 -104 -21 -183 -142 -44 -68 -76 -107 -84 -104
-7 2 -64 42 -126 88 -246 182 -814 571 -1009 693 -25 15 -47 29 -49 31 -2 2
37 77 88 168 100 180 110 219 71 283 -43 71 -151 84 -211 27 -27 -26 -125
-186 -175 -286 l-19 -36 -175 105 c-1017 613 -1927 1041 -2657 1248 -51 14
-255 61 -453 104 -199 44 -363 80 -365 82 -1 2 1 78 6 169 15 260 15 277 -8
307 -10 15 -31 36 -45 46 -34 25 -113 32 -153 13z"/>
<path d="M29487 28280 c-62 -19 -127 -72 -173 -142 -54 -81 -78 -152 -95 -275
-22 -163 4 -275 80 -353 92 -95 214 -113 343 -51 208 99 296 379 190 605 -35
75 -119 168 -175 194 -50 24 -131 34 -170 22z"/>
<path d="M20171 27789 c-43 -13 -131 -101 -159 -160 -55 -113 -70 -332 -33
-451 31 -98 75 -155 150 -196 121 -67 204 -39 296 98 165 245 139 595 -50 692
-46 24 -152 33 -204 17z"/>
<path d="M25155 27529 c-201 -26 -587 -123 -768 -193 -202 -78 -241 -103 -418
-274 -179 -171 -274 -306 -326 -462 -26 -80 -26 -312 1 -390 22 -65 121 -241
179 -320 81 -110 295 -295 492 -426 100 -66 375 -167 670 -245 l200 -53 185 1
c164 0 197 3 290 26 198 49 326 115 527 275 384 305 422 341 546 527 165 245
258 507 260 729 1 122 -15 168 -101 301 -72 112 -116 151 -277 244 -209 121
-493 236 -645 260 -78 13 -716 12 -815 0z"/>
<path d="M26449 25135 c-14 -7 -66 -65 -116 -127 -103 -129 -161 -185 -252
-247 -147 -100 -418 -202 -601 -227 -294 -39 -626 4 -931 120 -197 75 -236 99
-359 220 -77 75 -92 86 -123 86 -47 0 -94 -39 -103 -86 -5 -27 -1 -42 19 -72
50 -75 170 -193 250 -246 135 -90 371 -185 592 -240 170 -42 249 -50 470 -50
179 0 225 3 315 23 238 50 490 156 655 273 96 69 188 163 297 306 65 84 72 98
76 147 4 53 3 56 -36 95 -34 35 -45 40 -83 40 -24 -1 -55 -7 -70 -15z"/>
<path d="M25983 23835 c-49 -21 -61 -50 -82 -196 -11 -75 -23 -142 -25 -150
-7 -17 -46 -438 -46 -487 0 -26 9 -43 38 -72 48 -49 96 -59 148 -34 67 34 74
52 90 240 14 177 23 264 51 479 15 122 15 132 -1 163 -33 63 -104 87 -173 57z"/>
<path d="M23613 23569 c-19 -12 -38 -37 -48 -63 -16 -40 -15 -48 3 -127 11
-46 23 -100 26 -121 22 -139 69 -392 82 -437 20 -70 38 -96 79 -115 66 -32
139 -12 175 47 26 42 25 71 -6 229 -78 406 -109 536 -131 561 -46 50 -125 61
-180 26z"/>
<path d="M28860 23017 c-46 -16 -112 -105 -211 -284 -74 -133 -145 -302 -156
-370 -3 -17 -3 -43 1 -57 10 -40 64 -95 106 -107 90 -27 162 22 200 136 30 91
84 200 178 355 62 102 76 134 79 175 6 67 -19 113 -77 143 -49 25 -69 26 -120
9z"/>
<path d="M21800 22973 c-44 -23 -80 -76 -80 -118 0 -18 9 -64 21 -101 12 -37
23 -79 25 -91 6 -30 92 -269 110 -305 46 -90 164 -101 234 -22 45 52 41 87
-41 324 -89 259 -97 277 -129 300 -41 29 -98 34 -140 13z"/>
<path d="M25001 22803 c-18 -9 -42 -31 -53 -47 -18 -29 -19 -44 -14 -211 7
-207 26 -350 51 -389 53 -81 186 -72 231 15 15 29 15 47 5 173 -7 78 -15 196
-20 263 -8 133 -18 160 -74 193 -39 24 -81 25 -126 3z"/>
<path d="M27041 22413 c-19 -10 -43 -29 -53 -43 -31 -43 -76 -213 -109 -411
l-31 -187 20 -46 c36 -80 127 -110 199 -66 50 30 63 60 89 207 13 76 38 192
55 258 42 161 44 177 24 219 -35 73 -125 105 -194 69z"/>
<path d="M23686 21930 c-57 -51 -61 -76 -31 -241 44 -241 64 -322 88 -347 59
-64 144 -68 203 -11 51 50 52 77 9 299 -51 266 -50 264 -90 299 -31 27 -44 31
-90 31 -46 0 -59 -5 -89 -30z"/>
<path d="M30562 21804 c-29 -15 -69 -59 -289 -322 -81 -95 -93 -136 -61 -200
18 -38 32 -51 68 -65 39 -16 52 -17 87 -8 37 10 59 31 180 172 166 194 199
239 207 285 19 99 -100 185 -192 138z"/>
<path d="M20583 21640 c-63 -38 -80 -117 -42 -193 34 -67 148 -252 170 -276
59 -63 166 -50 215 24 37 57 25 98 -77 270 -63 106 -104 164 -124 177 -39 23
-102 23 -142 -2z"/>
<path d="M19254 20961 c-32 -20 -64 -74 -64 -110 0 -46 29 -89 91 -137 35 -27
125 -98 199 -158 147 -120 189 -146 235 -146 92 0 158 107 118 192 -21 42
-185 182 -357 302 -121 84 -161 94 -222 57z"/>
<path d="M30355 19800 c-116 -26 -394 -108 -435 -128 -47 -23 -83 -93 -75
-142 13 -72 69 -120 141 -120 23 0 104 19 180 41 76 23 186 54 243 70 118 32
144 46 167 91 37 71 2 162 -73 194 -40 17 -48 17 -148 -6z"/>
<path d="M31585 19414 c-193 -26 -284 -49 -316 -80 -57 -54 -57 -145 0 -196
45 -41 70 -43 209 -19 70 12 170 26 222 31 101 11 140 28 174 73 26 35 27 104
2 142 -43 66 -99 76 -291 49z"/>
<path d="M20075 19222 c-50 -32 -68 -59 -72 -109 -3 -36 1 -56 16 -80 49 -78
306 -233 387 -233 75 0 134 59 134 135 0 65 -29 99 -122 146 -46 22 -116 66
-156 96 -85 65 -136 77 -187 45z"/>
<path d="M27785 18746 c-40 -18 -69 -51 -97 -111 -20 -44 -23 -66 -23 -175 0
-117 2 -129 28 -183 68 -137 193 -144 279 -16 45 67 71 147 76 232 4 70 1 83
-24 133 -32 64 -78 106 -133 123 -48 14 -69 14 -106 -3z"/>
<path d="M25210 18469 c-243 -22 -385 -54 -524 -118 -125 -58 -202 -154 -213
-267 -5 -44 -1 -62 21 -108 15 -30 41 -66 59 -81 125 -101 249 -192 310 -229
40 -23 97 -58 127 -78 140 -90 301 -148 412 -148 73 0 192 26 253 56 89 44
235 173 325 287 129 164 180 281 180 412 0 109 -60 171 -217 226 -141 49 -474
71 -733 48z"/>
<path d="M30855 18459 c-71 -10 -188 -21 -260 -24 -139 -6 -157 -12 -199 -68
-26 -35 -26 -108 1 -145 35 -49 77 -62 195 -62 132 0 470 44 518 68 42 21 80
75 80 114 0 44 -29 98 -64 119 -39 24 -96 23 -271 -2z"/>
<path d="M22485 18452 c-92 -56 -130 -146 -130 -307 0 -105 2 -114 33 -178 60
-122 150 -151 230 -75 41 39 99 157 112 231 13 70 -3 227 -27 270 -38 66 -155
97 -218 59z"/>
<path d="M19324 18387 c-28 -26 -37 -42 -41 -78 -6 -52 13 -100 50 -123 41
-27 231 -85 302 -91 63 -6 73 -4 105 17 66 44 85 123 45 184 -25 38 -59 55
-137 65 -40 6 -105 21 -144 35 -99 34 -136 32 -180 -9z"/>
<path d="M18211 17572 c-61 -33 -87 -112 -57 -170 28 -53 58 -71 156 -92 52
-11 124 -27 160 -35 115 -26 212 -30 248 -11 93 48 95 193 3 240 -29 15 -343
76 -431 83 -31 3 -56 -2 -79 -15z"/>
<path d="M26013 17513 c-7 -2 -26 -32 -43 -66 -73 -152 -270 -309 -454 -362
-79 -23 -293 -23 -362 1 -153 52 -309 149 -354 222 -53 86 -59 92 -94 92 -101
0 -80 -125 41 -247 58 -57 193 -140 305 -185 l103 -42 160 -4 c191 -5 241 5
392 78 126 61 231 145 314 250 108 137 132 207 89 250 -19 19 -67 26 -97 13z"/>
<path d="M31698 15601 c-92 -7 -124 -27 -152 -94 -18 -44 -19 -48 -2 -91 10
-27 31 -55 49 -68 32 -23 34 -23 342 -20 269 2 314 5 344 20 75 37 102 128 59
192 -44 66 -64 70 -328 68 -129 -1 -270 -4 -312 -7z"/>
<path d="M18715 15160 c-52 -26 -75 -65 -75 -128 0 -63 25 -97 98 -129 83 -36
163 -51 317 -58 130 -6 142 -5 173 14 132 84 69 261 -93 261 -87 0 -225 20
-283 40 -70 25 -87 25 -137 0z"/>
<path d="M30500 14581 c-128 -7 -156 -17 -190 -74 -40 -65 -16 -155 52 -197
27 -16 51 -20 133 -20 143 0 265 16 294 38 90 67 90 178 1 240 -36 24 -51 25
-290 13z"/>
<path d="M32060 14439 c-36 -5 -126 -12 -200 -17 -155 -9 -177 -18 -211 -88
-27 -56 -20 -101 22 -149 46 -52 74 -57 252 -45 197 13 354 36 391 58 34 20
66 75 66 115 0 38 -23 79 -61 111 -29 24 -38 26 -113 24 -44 -1 -110 -5 -146
-9z"/>
<path d="M30235 40589 c-18 -50 -84 -253 -82 -254 1 -1 61 -22 133 -47 l130
-46 43 129 c23 71 40 133 37 138 -4 5 -57 26 -119 47 -61 20 -118 39 -124 42
-7 2 -15 -2 -18 -9z"/>
<path d="M19309 40433 l-126 -46 44 -116 c25 -64 48 -123 51 -132 7 -16 40 -6
259 75 13 5 -75 258 -92 262 -5 2 -67 -18 -136 -43z"/>
<path d="M30790 40397 c0 -2 -20 -59 -45 -127 -25 -68 -42 -127 -38 -131 5 -4
55 -25 113 -47 58 -22 112 -43 121 -47 14 -5 26 17 68 126 28 72 50 133 49
134 -2 1 -16 7 -33 13 -16 6 -73 27 -125 46 -91 34 -110 40 -110 33z"/>
<path d="M18763 40221 c-61 -25 -114 -49 -117 -52 -6 -6 88 -237 103 -252 8
-8 244 87 248 100 6 18 -94 248 -108 249 -8 1 -64 -19 -126 -45z"/>
<path d="M31291 40058 c-30 -71 -52 -130 -50 -132 9 -7 251 -107 253 -104 7 9
106 241 106 248 0 8 -20 17 -155 75 l-101 42 -53 -129z"/>
<path d="M18290 40016 c-98 -42 -190 -85 -190 -90 0 -2 27 -60 59 -130 l60
-125 118 55 c65 30 121 58 124 62 8 8 -94 245 -107 249 -5 1 -34 -8 -64 -21z"/>
<path d="M31826 39827 c-31 -68 -56 -126 -56 -129 0 -11 242 -120 250 -112 5
5 34 62 64 127 l55 117 -126 60 c-69 33 -127 60 -128 60 -1 0 -28 -55 -59
-123z"/>
<path d="M17729 39750 c-52 -25 -109 -54 -126 -63 l-33 -17 61 -123 c34 -67
62 -123 64 -125 1 -1 59 26 127 60 l126 63 -63 126 -62 126 -94 -47z"/>
<path d="M32395 39662 c-10 -20 -37 -78 -61 -129 l-43 -92 119 -60 c65 -34
121 -61 123 -61 6 0 127 228 127 239 0 4 -42 29 -92 56 -51 26 -107 56 -124
66 l-31 18 -18 -37z"/>
<path d="M17176 39464 c-66 -35 -121 -66 -124 -68 -4 -5 127 -246 133 -246 4
0 147 75 202 107 l43 24 -57 107 c-31 59 -61 115 -68 124 -10 15 -23 10 -129
-48z"/>
<path d="M32868 39298 c-60 -110 -65 -123 -50 -134 23 -15 219 -124 225 -124
6 0 140 241 136 244 -7 5 -241 136 -243 136 -1 0 -31 -55 -68 -122z"/>
<path d="M16665 39173 c-61 -35 -114 -68 -118 -72 -6 -6 107 -206 132 -234 4
-4 56 22 116 58 60 36 114 66 119 68 9 3 -116 231 -132 241 -4 2 -57 -25 -117
-61z"/>
<path d="M33377 39005 c-37 -63 -67 -116 -67 -119 0 -4 106 -73 192 -125 l37
-22 24 38 c13 21 47 75 75 119 l51 82 -114 71 c-63 39 -118 71 -123 71 -4 0
-38 -52 -75 -115z"/>
<path d="M16160 38863 c-63 -40 -115 -79 -114 -86 1 -8 33 -61 73 -120 l71
-106 115 72 c63 40 115 75 115 79 0 4 -33 59 -73 121 l-73 114 -114 -74z"/>
<path d="M33869 38695 c-41 -66 -68 -120 -63 -123 95 -65 215 -142 221 -142
13 1 154 220 148 229 -6 10 -200 140 -220 147 -8 3 -41 -39 -86 -111z"/>
<path d="M15714 38567 c-33 -23 -83 -57 -111 -76 -32 -20 -50 -38 -46 -45 28
-48 149 -216 155 -216 11 0 223 150 222 157 -1 11 -149 223 -155 223 -4 0 -33
-19 -65 -43z"/>
<path d="M34358 38370 c-43 -60 -78 -111 -78 -113 0 -3 37 -31 83 -63 45 -31
95 -68 110 -81 l29 -23 79 111 c44 61 79 115 77 119 -3 9 -195 150 -212 156
-6 2 -46 -45 -88 -106z"/>
<path d="M15184 38187 l-112 -82 37 -46 c20 -25 59 -75 86 -111 l50 -66 112
82 112 82 -82 112 c-45 61 -84 112 -87 112 -3 0 -55 -37 -116 -83z"/>
<path d="M34833 38030 c-46 -60 -83 -112 -83 -117 0 -4 19 -21 43 -38 23 -16
72 -53 108 -82 l67 -52 86 112 c82 107 85 113 66 126 -11 7 -61 47 -111 87
-50 41 -91 74 -92 74 -1 -1 -39 -50 -84 -110z"/>
<path d="M14715 37824 c-95 -77 -105 -88 -92 -102 7 -10 46 -56 86 -104 40
-49 78 -88 83 -88 14 0 209 163 206 172 -6 16 -160 208 -168 208 -4 0 -56 -39
-115 -86z"/>
<path d="M35295 37667 c-44 -55 -80 -106 -80 -112 0 -6 38 -42 85 -79 47 -38
92 -75 101 -83 14 -12 26 -2 107 93 l90 106 -31 27 c-58 49 -185 151 -189 151
-2 -1 -39 -47 -83 -103z"/>
<path d="M14262 37449 l-102 -91 91 -104 c50 -57 92 -104 95 -104 8 0 204 172
204 179 0 10 -171 211 -179 210 -3 0 -52 -41 -109 -90z"/>
<path d="M35750 37303 c-113 -130 -108 -114 -48 -171 29 -27 75 -69 103 -92
l49 -43 83 89 c46 49 88 96 93 105 8 14 -10 34 -90 105 -55 49 -104 90 -108
91 -4 2 -41 -36 -82 -84z"/>
<path d="M43470 37075 c-190 -112 -349 -205 -354 -207 -5 -2 32 -74 82 -159
50 -85 87 -157 84 -160 -4 -4 -540 -316 -1192 -694 -652 -379 -1211 -705
-1242 -726 -64 -44 -120 -108 -144 -165 -22 -53 -20 -147 5 -219 18 -51 462
-831 627 -1102 177 -291 427 -548 657 -676 271 -152 565 -178 855 -75 362 127
617 387 693 706 18 73 20 107 16 212 -3 69 -9 138 -13 154 -8 35 -7 35 111
-18 121 -53 221 -69 384 -63 209 8 360 58 546 182 98 65 235 206 288 296 184
314 167 721 -47 1164 -52 107 -982 1725 -1004 1746 -4 4 -162 -85 -352 -196z
m442 -1597 c154 -267 153 -266 168 -347 9 -50 8 -73 -4 -122 -28 -108 -87
-172 -214 -232 -56 -27 -81 -32 -154 -35 -76 -4 -94 -1 -141 21 -30 14 -72 42
-94 64 -21 21 -101 147 -180 283 l-142 245 82 47 c45 26 181 106 302 177 121
71 225 130 231 130 6 1 72 -104 146 -231z m-1259 -798 c90 -157 172 -309 182
-339 24 -72 17 -189 -14 -253 -50 -104 -170 -202 -293 -239 -97 -30 -221 -24
-293 13 -101 53 -125 84 -303 395 -105 182 -122 218 -122 256 0 35 6 49 29 71
25 24 641 389 647 383 1 -1 76 -130 167 -287z"/>
<path d="M13826 37056 l-100 -94 31 -38 c18 -22 61 -68 97 -103 l65 -64 89 81
c49 45 95 88 101 96 10 12 -4 33 -79 115 -51 56 -95 101 -98 101 -4 -1 -52
-43 -106 -94z"/>
<path d="M7014 37109 c-395 -35 -787 -201 -1105 -467 -423 -354 -716 -905
-780 -1462 -15 -133 -7 -423 16 -550 98 -549 413 -1018 890 -1329 776 -505
1704 -477 2410 74 437 341 749 903 816 1469 19 160 6 453 -26 606 -134 640
-545 1156 -1160 1456 -345 168 -698 235 -1061 203z m267 -1014 c265 -40 491
-157 695 -360 163 -162 257 -320 312 -523 23 -86 26 -116 26 -262 1 -142 -2
-177 -22 -250 -105 -385 -414 -666 -811 -735 -367 -65 -783 66 -1063 333 -106
102 -168 185 -234 317 -258 518 -61 1125 449 1381 198 100 420 134 648 99z"/>
<path d="M36199 36926 c-36 -39 -79 -86 -95 -105 l-28 -34 99 -93 100 -93 98
97 c53 53 97 99 97 102 0 3 -46 48 -103 101 l-102 96 -66 -71z"/>
<path d="M13403 36648 l-102 -103 102 -96 103 -96 98 99 99 99 -99 100 -99 99
-102 -102z"/>
<path d="M36588 36483 l-96 -96 95 -98 96 -98 104 96 104 97 -98 98 c-54 54
-100 98 -103 98 -3 0 -49 -43 -102 -97z"/>
<path d="M13035 36268 c-28 -29 -70 -74 -94 -100 l-45 -47 65 -59 c35 -32 82
-75 105 -95 l41 -36 95 102 95 103 -98 89 c-54 49 -102 91 -106 92 -5 2 -31
-20 -58 -49z"/>
<path d="M36995 36066 c-92 -86 -99 -95 -85 -112 49 -64 164 -184 173 -181 13
4 205 170 206 177 0 3 -43 51 -97 108 l-97 102 -100 -94z"/>
<path d="M12638 35831 c-92 -98 -132 -151 -122 -160 49 -46 201 -170 206 -168
9 3 178 200 177 207 0 3 -30 30 -65 60 -36 30 -83 70 -104 87 l-38 33 -54 -59z"/>
<path d="M37383 35632 c-56 -48 -102 -89 -102 -92 -1 -3 39 -53 87 -111 l88
-106 94 79 c52 43 101 84 108 91 10 11 -3 31 -67 108 -43 52 -85 100 -93 106
-11 9 -34 -6 -115 -75z"/>
<path d="M12222 35336 c-46 -58 -82 -108 -81 -113 2 -4 49 -45 106 -91 l102
-82 90 107 89 106 -106 89 c-58 48 -109 88 -112 88 -3 0 -43 -47 -88 -104z"/>
<path d="M37785 35202 c-44 -35 -93 -74 -109 -87 l-29 -23 34 -44 c18 -23 57
-73 87 -110 l53 -68 109 87 110 86 -27 36 c-15 20 -54 70 -88 112 l-61 75 -79
-64z"/>
<path d="M11860 34873 c-44 -59 -80 -112 -80 -118 2 -14 213 -165 222 -159 10
7 148 193 154 208 3 7 -29 38 -73 71 -43 32 -92 69 -110 82 l-32 24 -81 -108z"/>
<path d="M38120 34720 c-58 -43 -106 -83 -108 -89 -3 -10 131 -205 148 -216 8
-5 214 137 225 155 2 4 -33 57 -78 118 l-83 110 -104 -78z"/>
<path d="M11523 34409 c-37 -55 -74 -109 -81 -118 -11 -16 0 -26 104 -95 64
-43 117 -76 118 -74 21 26 156 218 156 222 0 2 -30 26 -67 52 -38 26 -89 62
-115 81 l-46 33 -69 -101z"/>
<path d="M38452 34239 c-71 -51 -110 -85 -105 -92 3 -7 38 -58 76 -115 l69
-103 27 17 c14 10 67 45 118 79 l92 61 -70 105 c-39 57 -76 110 -83 116 -9 10
-35 -4 -124 -68z"/>
<path d="M11185 33904 c-63 -96 -74 -119 -63 -129 7 -7 61 -42 119 -78 l106
-65 18 32 c10 17 44 70 76 118 l58 87 -106 68 c-59 37 -112 71 -119 76 -9 5
-36 -29 -89 -109z"/>
<path d="M38785 33759 c-60 -38 -113 -73 -118 -78 -6 -6 113 -215 137 -238 3
-4 211 121 230 138 8 7 -57 124 -118 216 l-22 31 -109 -69z"/>
<path d="M10877 33406 c-37 -63 -67 -119 -67 -124 0 -6 53 -41 117 -78 93 -54
118 -65 125 -53 4 8 36 61 71 120 l62 105 -116 72 c-65 40 -119 72 -121 72 -2
0 -34 -51 -71 -114z"/>
<path d="M39100 33264 c-52 -31 -105 -62 -117 -70 -22 -14 -22 -14 34 -111 30
-54 61 -108 69 -120 13 -21 14 -21 133 45 67 37 121 70 121 74 0 10 -133 238
-139 238 -3 0 -49 -25 -101 -56z"/>
<path d="M10627 32978 c-9 -18 -38 -74 -66 -124 l-49 -91 125 -67 c69 -37 126
-66 128 -64 1 2 19 35 38 74 20 39 49 94 65 121 l30 51 -122 66 c-68 36 -125
66 -128 66 -2 0 -12 -15 -21 -32z"/>
<path d="M39375 32749 c-60 -33 -114 -64 -118 -68 -5 -5 19 -61 54 -129 l64
-120 120 60 c66 33 122 62 124 64 5 5 -122 254 -129 253 -3 0 -54 -27 -115
-60z"/>
<path d="M44430 32715 c-498 -69 -941 -290 -1276 -636 -365 -377 -556 -853
-557 -1389 0 -353 76 -675 235 -995 176 -352 445 -646 773 -844 781 -471 1838
-349 2509 289 277 263 488 645 565 1025 122 600 -32 1272 -406 1773 -73 97
-245 276 -343 355 -282 228 -623 374 -989 422 -130 18 -383 17 -511 0z m470
-1020 c249 -37 446 -139 616 -318 109 -114 176 -224 226 -372 204 -602 -161
-1214 -824 -1381 -81 -20 -136 -27 -263 -31 -236 -8 -392 24 -579 119 -107 54
-156 88 -249 177 -98 94 -154 172 -211 292 -161 341 -116 737 121 1047 260
340 737 532 1163 467z"/>
<path d="M3964 32537 c-91 -36 -159 -116 -200 -240 -33 -101 -724 -2630 -719
-2635 2 -2 181 -52 399 -111 l394 -107 32 115 c17 64 38 142 47 174 12 43 20
57 34 57 31 0 382 -105 574 -171 596 -205 1074 -480 1448 -831 l77 -73 -15
-50 c-46 -148 -40 -261 19 -338 61 -80 119 -101 801 -287 341 -93 623 -166
626 -162 11 13 233 832 227 838 -3 3 -150 45 -327 93 -176 49 -332 96 -346
105 -28 18 -45 53 -45 91 0 14 121 467 269 1007 148 541 274 1003 281 1027 17
63 58 101 109 101 23 0 181 -39 352 -86 171 -47 316 -83 323 -81 12 5 243 833
235 841 -9 9 -1256 344 -1305 351 -166 22 -268 -60 -332 -267 -15 -49 -30 -88
-35 -88 -5 0 -615 165 -1355 367 -1279 349 -1352 367 -1442 370 -57 1 -107 -2
-126 -10z m1601 -1389 c589 -160 1071 -293 1073 -294 3 -1 -146 -544 -317
-1161 -6 -20 -14 -16 -104 62 -418 357 -1026 654 -1800 880 -120 35 -221 66
-225 69 -3 4 36 158 86 344 84 308 94 339 122 365 20 18 41 27 63 27 17 0 514
-131 1102 -292z"/>
<path d="M10328 32408 c-71 -140 -84 -171 -69 -176 7 -2 62 -28 122 -58 61
-30 112 -54 115 -54 5 0 126 241 122 245 -2 1 -58 30 -125 64 l-123 61 -42
-82z"/>
<path d="M39633 32223 l-123 -64 61 -122 c34 -67 63 -123 64 -125 2 -2 58 24
125 58 110 55 120 63 114 83 -9 29 -103 220 -112 228 -4 3 -62 -23 -129 -58z"/>
<path d="M10057 31842 c-31 -65 -57 -123 -57 -129 0 -6 21 -20 48 -31 26 -11
82 -37 125 -56 l78 -36 44 92 c23 51 49 109 58 129 l14 35 -120 55 c-66 29
-123 55 -127 57 -4 1 -32 -51 -63 -116z"/>
<path d="M39883 31697 c-61 -29 -114 -55 -117 -58 -5 -5 97 -248 105 -252 2 0
61 23 131 53 l127 54 -14 30 c-77 181 -99 226 -109 225 -6 0 -61 -24 -123 -52z"/>
<path d="M9854 31383 c-9 -21 -33 -79 -54 -129 l-37 -91 129 -52 c71 -29 131
-51 133 -49 8 9 107 249 104 252 -4 5 -249 106 -255 106 -2 0 -11 -17 -20 -37z"/>
<path d="M40118 31162 c-64 -26 -119 -50 -123 -53 -4 -5 80 -246 91 -257 2 -3
253 87 263 94 6 5 -100 264 -108 264 -3 -1 -59 -22 -123 -48z"/>
<path d="M9620 30791 c-18 -47 -41 -107 -51 -132 l-18 -47 131 -46 c72 -26
135 -43 138 -39 4 4 16 33 25 63 10 30 30 84 45 120 l27 66 -132 50 -133 51
-32 -86z"/>
<path d="M40319 30611 l-126 -46 47 -130 c32 -89 52 -129 61 -127 52 11 249
87 248 96 -1 26 -85 250 -94 251 -5 2 -67 -18 -136 -44z"/>
<path d="M9437 30278 c-63 -179 -77 -221 -75 -223 16 -13 262 -85 268 -79 10
12 80 224 80 244 0 11 -35 27 -117 54 -65 21 -123 41 -129 43 -7 2 -19 -15
-27 -39z"/>
<path d="M40504 30059 l-122 -40 44 -132 c24 -73 47 -132 51 -131 5 0 66 18
136 39 79 24 126 43 123 50 -2 6 -21 66 -42 133 -28 90 -41 122 -53 121 -9 0
-71 -19 -137 -40z"/>
<path d="M9240 29658 c-17 -57 -35 -116 -41 -132 -5 -17 -6 -33 -2 -37 8 -7
237 -69 257 -69 11 0 94 257 85 263 -5 4 -255 77 -262 77 -4 0 -20 -46 -37
-102z"/>
<path d="M40683 29502 c-93 -27 -123 -40 -123 -53 0 -23 60 -232 70 -243 8 -8
248 49 262 62 9 10 -64 272 -76 271 -6 0 -66 -17 -133 -37z"/>
<path d="M9109 29188 c0 -2 -15 -63 -33 -135 l-33 -133 36 -9 c107 -28 236
-60 237 -58 6 10 66 268 63 270 -13 11 -268 71 -270 65z"/>
<path d="M40830 28936 c-69 -18 -124 -37 -124 -42 3 -21 57 -250 60 -255 3 -5
263 49 273 57 8 7 -64 274 -74 273 -5 0 -66 -16 -135 -33z"/>
<path d="M8955 28538 c-9 -46 -23 -108 -30 -139 l-13 -57 135 -27 c74 -14 137
-24 140 -21 7 6 63 260 58 264 -2 2 -263 62 -271 62 -1 0 -9 -37 -19 -82z"/>
<path d="M40972 28370 c-73 -15 -135 -29 -137 -32 -2 -2 -1 -20 4 -39 5 -19
17 -78 27 -131 13 -75 21 -98 33 -98 9 0 71 10 139 22 88 16 122 26 122 36 0
15 -50 265 -53 268 -1 0 -62 -11 -135 -26z"/>
<path d="M8840 27968 c-7 -40 -17 -103 -24 -139 l-12 -66 134 -22 c73 -13 136
-20 139 -17 11 11 54 259 46 266 -7 7 -233 50 -260 50 -6 0 -17 -33 -23 -72z"/>
<path d="M41081 27793 c-74 -13 -136 -25 -138 -27 -9 -8 41 -276 51 -273 6 2
68 13 139 23 100 14 127 21 127 34 0 18 -40 263 -43 265 -1 1 -62 -9 -136 -22z"/>
<path d="M8757 27453 c-8 -14 -41 -263 -35 -268 3 -3 66 -14 140 -24 l136 -17
17 133 c10 73 16 135 13 138 -4 4 -244 45 -264 45 -1 0 -5 -3 -7 -7z"/>
<path d="M41165 27218 c-71 -11 -132 -21 -134 -24 -5 -4 26 -264 32 -270 4 -4
271 26 276 32 6 6 -32 284 -38 283 -3 -1 -64 -10 -136 -21z"/>
<path d="M8676 26842 c-10 -65 -27 -244 -24 -247 6 -6 270 -26 275 -21 6 6 35
267 30 272 -1 1 -52 8 -112 14 -61 6 -122 12 -137 15 -24 4 -27 1 -32 -33z"/>
<path d="M4413 26815 c-182 -41 -341 -198 -382 -375 -17 -74 -13 -191 9 -262
72 -232 312 -386 547 -350 311 49 504 363 404 656 -26 75 -54 118 -114 183
-122 130 -299 186 -464 148z"/>
<path d="M45174 26816 c-176 -40 -322 -174 -374 -344 -24 -77 -27 -214 -6
-283 75 -247 317 -401 565 -359 287 48 478 338 406 615 -33 124 -124 249 -228
309 -108 64 -250 88 -363 62z"/>
<path d="M41230 26634 c-63 -7 -119 -13 -124 -13 -8 -1 0 -213 10 -256 5 -19
9 -20 144 -11 133 8 140 10 140 30 0 12 -5 76 -12 144 -10 99 -15 122 -27 121
-9 -1 -68 -7 -131 -15z"/>
<path d="M8617 26185 c-12 -187 -15 -173 46 -179 28 -3 91 -8 138 -11 l86 -5
7 118 c4 64 10 126 12 138 6 23 3 24 -202 40 l-81 7 -6 -108z"/>
<path d="M41227 26053 l-89 -4 7 -107 c3 -59 8 -123 11 -142 l5 -35 107 3 c59
1 121 5 139 8 l32 5 -5 97 c-3 53 -7 116 -10 140 l-5 42 -52 -2 c-29 -1 -92
-4 -140 -5z"/>
<path d="M8586 25608 c-3 -50 -6 -112 -6 -138 0 -47 0 -47 38 -54 20 -3 85 -6
145 -6 l107 0 0 139 0 138 -52 7 c-29 3 -92 6 -139 6 l-86 0 -7 -92z"/>
<path d="M41168 25328 c2 -79 5 -144 6 -145 1 -1 63 1 139 4 l137 6 0 138 0
139 -143 0 -142 0 3 -142z"/>
<path d="M8580 25065 l0 -45 140 0 140 0 0 45 0 45 -140 0 -140 0 0 -45z"/>
<path d="M8580 24920 l0 -90 140 0 140 0 0 90 0 90 -140 0 -140 0 0 -90z"/>
<path d="M41168 24745 l-3 -145 143 0 142 0 0 145 0 145 -139 0 -140 0 -3
-145z"/>
<path d="M8587 24523 c-2 -5 -2 -70 1 -146 l5 -139 141 7 c77 4 141 8 141 9 0
0 -1 63 -3 139 l-3 137 -139 0 c-76 0 -141 -3 -143 -7z"/>
<path d="M41156 24248 c-3 -29 -8 -92 -11 -139 l-6 -86 142 -7 c77 -4 142 -6
144 -4 1 2 5 67 8 146 l7 142 -139 0 -140 0 -5 -52z"/>
<path d="M5465 24195 c-11 -2 -49 -7 -85 -10 l-65 -6 8 -122 c4 -67 9 -122 10
-123 1 -1 31 2 67 7 93 12 152 -7 214 -68 57 -58 117 -177 140 -280 19 -84 21
-229 5 -305 -33 -157 -145 -281 -297 -328 -282 -88 -543 45 -637 324 -19 57
-28 113 -37 233 -6 87 -14 161 -17 166 -4 4 -56 4 -115 0 l-109 -6 7 -71 c16
-175 19 -375 7 -437 -27 -137 -113 -270 -219 -338 -112 -72 -274 -98 -414 -67
-200 45 -362 225 -413 460 -28 126 -17 303 25 428 36 109 97 220 160 291 23
26 41 49 39 51 -2 1 -48 35 -103 75 l-98 73 -25 -24 c-44 -40 -126 -170 -165
-261 -175 -405 -103 -893 171 -1165 153 -151 334 -218 566 -209 210 8 340 61
471 191 88 88 132 160 168 279 l22 68 48 -71 c90 -131 225 -229 367 -266 85
-23 232 -22 334 0 132 29 237 86 325 175 134 135 192 297 193 536 2 433 -201
783 -463 799 -36 3 -74 3 -85 1z"/>
<path d="M46546 23998 c-8 -117 -23 -142 -87 -145 -24 -2 -561 37 -1194 86
-632 48 -1153 85 -1156 82 -4 -3 -10 -60 -14 -126 l-7 -121 927 -759 c509
-418 992 -809 1071 -869 80 -59 144 -110 142 -111 -2 -1 -52 6 -113 16 -140
23 -1922 162 -1993 156 -69 -7 -115 -37 -142 -93 -18 -36 -25 -81 -37 -216 -7
-94 -12 -172 -10 -174 2 -2 55 -7 119 -10 l115 -7 6 91 c6 102 17 129 52 138
14 3 555 -34 1202 -83 688 -53 1181 -86 1184 -81 3 5 9 62 13 126 6 112 6 117
-16 138 -20 19 -1675 1376 -1798 1475 -25 19 -108 80 -185 135 -76 54 -133
100 -125 102 8 1 58 -4 110 -12 52 -8 517 -47 1034 -87 814 -63 945 -71 985
-60 93 25 127 85 141 253 5 62 12 138 15 169 l4 57 -77 6 c-42 4 -95 9 -118
12 l-41 6 -7 -94z"/>
<path d="M8708 23941 c-48 -4 -89 -9 -92 -11 -5 -6 11 -270 18 -277 2 -3 66 1
141 8 l137 13 -7 130 c-4 72 -9 134 -12 139 -5 8 -50 7 -185 -2z"/>
<path d="M41117 23684 c-3 -27 -9 -90 -13 -140 l-6 -92 28 -5 c16 -3 61 -8 99
-12 39 -3 88 -8 111 -11 l41 -6 11 101 c7 56 12 121 12 145 l0 43 -102 7 c-57
4 -119 9 -139 13 l-36 5 -6 -48z"/>
<path d="M8810 23364 c-63 -7 -123 -13 -134 -13 -16 -1 -18 -7 -13 -48 3 -27
11 -91 17 -143 l12 -95 136 14 c76 8 139 15 141 17 3 3 -15 182 -25 252 -3 17
-8 31 -12 31 -4 -1 -59 -7 -122 -15z"/>
<path d="M41046 23014 c-9 -75 -15 -138 -13 -140 5 -5 267 -37 272 -33 6 6 45
278 40 279 -17 3 -255 30 -266 30 -13 0 -19 -26 -33 -136z"/>
<path d="M8857 22780 c-65 -10 -121 -21 -124 -23 -3 -3 5 -67 18 -142 21 -128
24 -136 43 -132 12 3 74 13 139 23 l117 18 -5 30 c-2 17 -12 79 -21 139 -14
86 -20 107 -33 106 -9 -1 -69 -9 -134 -19z"/>
<path d="M40986 22556 c-14 -59 -39 -246 -34 -252 4 -3 66 -16 138 -29 93 -16
133 -19 135 -11 7 21 46 269 43 271 -2 1 -65 11 -140 22 l-137 19 -5 -20z"/>
<path d="M5970 22308 c-58 -11 -106 -20 -107 -22 -1 -1 4 -42 13 -92 19 -111
11 -138 -43 -154 -21 -6 -553 -98 -1183 -206 -630 -108 -1146 -197 -1148 -198
-1 -2 8 -60 20 -130 18 -103 24 -125 37 -122 41 11 1181 199 1185 195 2 -2 58
-328 125 -724 67 -396 124 -732 126 -746 l6 -25 -592 -100 c-325 -54 -595
-102 -600 -105 -8 -5 25 -246 34 -255 1 -1 531 87 1177 197 646 109 1182 196
1192 193 31 -9 45 -45 58 -136 14 -101 1 -95 140 -69 70 13 96 21 98 33 6 34
-49 314 -71 358 -12 25 -37 55 -54 66 -61 41 -95 39 -473 -26 -607 -103 -670
-113 -674 -109 -6 6 -259 1490 -255 1493 2 2 227 41 499 86 272 45 519 91 548
102 111 41 130 116 92 349 -24 151 -29 170 -38 168 -4 -1 -54 -10 -112 -21z"/>
<path d="M8957 22205 c-71 -13 -130 -25 -132 -27 -5 -4 42 -269 49 -276 3 -3
67 7 141 23 125 26 134 29 130 49 -2 12 -14 74 -26 139 -12 64 -25 117 -28
116 -3 0 -64 -11 -134 -24z"/>
<path d="M40876 21928 c-20 -98 -37 -191 -33 -194 1 -2 57 -15 122 -29 66 -14
127 -28 136 -30 13 -4 20 16 38 117 12 68 23 132 24 142 2 17 -12 23 -113 42
-168 33 -155 37 -174 -48z"/>
<path d="M9062 21630 c-68 -15 -124 -29 -126 -31 -3 -4 53 -271 58 -276 2 -2
269 58 274 62 2 1 -19 100 -53 253 -6 26 1 27 -153 -8z"/>
<path d="M43904 21496 c-34 -15 -74 -63 -92 -111 -11 -28 -322 -1318 -322
-1335 0 -10 213 -60 221 -52 4 4 18 56 32 116 15 60 28 110 30 112 1 2 534
-118 1182 -266 649 -149 1183 -270 1186 -270 7 0 64 249 58 253 -2 2 -535 124
-1184 272 -649 148 -1181 269 -1183 270 -4 3 167 691 179 718 20 45 52 49 162
23 69 -16 100 -20 102 -12 9 24 52 221 50 224 -2 2 -70 19 -152 37 -160 37
-221 42 -269 21z"/>
<path d="M40742 21304 c-18 -75 -31 -138 -30 -139 14 -10 263 -64 268 -58 8 9
72 264 68 269 -2 2 -58 15 -123 29 -66 14 -127 28 -136 30 -12 4 -21 -20 -47
-131z"/>
<path d="M9190 21058 c-63 -16 -116 -31 -119 -33 -5 -6 60 -264 68 -269 5 -3
256 61 268 68 0 1 -11 48 -26 106 -15 58 -31 117 -35 133 -8 33 -10 33 -156
-5z"/>
<path d="M40598 20738 c-21 -72 -37 -132 -35 -133 1 -1 159 -45 260 -73 11 -3
17 1 17 11 0 8 16 69 34 134 19 65 32 121 28 124 -7 6 -243 69 -258 69 -5 0
-26 -59 -46 -132z"/>
<path d="M9346 20495 c-65 -19 -120 -36 -123 -38 -5 -5 64 -243 76 -263 4 -7
50 3 138 30 101 31 132 45 129 56 -32 118 -79 250 -89 249 -7 0 -65 -16 -131
-34z"/>
<path d="M40436 20184 l-44 -133 111 -35 c184 -57 157 -68 204 86 22 73 39
134 38 135 -1 2 -61 20 -133 42 l-131 38 -45 -133z"/>
<path d="M9530 19939 c-63 -22 -119 -44 -124 -49 -5 -5 9 -64 33 -139 l41
-130 133 46 c72 25 133 47 134 47 6 4 -85 260 -93 262 -5 2 -61 -15 -124 -37z"/>
<path d="M40251 19635 c-24 -69 -41 -128 -39 -130 11 -11 251 -95 257 -90 3 3
27 63 52 133 l46 127 -126 43 c-69 23 -130 42 -136 42 -5 0 -30 -57 -54 -125z"/>
<path d="M43347 19563 c-2 -5 -21 -59 -41 -120 l-38 -113 24 -32 c197 -280
1402 -1922 1490 -2032 65 -81 117 -150 115 -152 -2 -2 -59 20 -128 50 -199 85
-1814 639 -1880 644 -70 5 -121 -17 -154 -67 -21 -32 -140 -350 -133 -356 2
-1 52 -18 111 -38 76 -25 109 -32 112 -24 3 7 16 45 30 86 28 84 48 111 81
111 16 0 2106 -709 2255 -765 10 -4 26 29 56 115 l41 120 -698 961 c-383 528
-752 1026 -819 1106 -66 81 -120 148 -118 149 2 2 75 -26 162 -61 261 -105
1792 -626 1855 -632 113 -9 166 52 236 274 25 79 44 146 41 149 -6 6 -195 74
-205 74 -4 0 -20 -37 -36 -82 -33 -96 -64 -133 -107 -124 -15 3 -525 176
-1133 386 -608 209 -1107 380 -1110 380 -3 0 -7 -3 -9 -7z"/>
<path d="M9711 19385 c-62 -24 -115 -46 -118 -49 -6 -6 86 -254 97 -261 4 -3
64 18 133 46 l126 51 -24 66 c-47 129 -73 187 -87 189 -7 1 -64 -18 -127 -42z"/>
<path d="M40090 19197 c-42 -96 -89 -232 -83 -238 19 -16 247 -99 253 -92 17
19 100 247 93 253 -9 8 -53 25 -176 71 l-78 29 -9 -23z"/>
<path d="M4170 19028 c-52 -17 -97 -32 -99 -33 -5 -6 50 -167 75 -217 26 -51
69 -88 124 -107 19 -7 134 -17 255 -22 121 -5 296 -13 389 -17 l169 -7 159
-494 c88 -271 157 -499 155 -505 -3 -7 -135 -114 -294 -238 -158 -124 -300
-239 -315 -254 -35 -38 -58 -94 -58 -143 0 -35 33 -164 59 -233 l10 -27 108
36 c59 20 109 36 110 37 1 1 -5 27 -14 59 -13 54 -13 61 4 92 13 24 295 251
988 792 534 417 983 768 998 779 l27 22 -43 133 -43 134 -34 2 c-19 2 -591 26
-1270 54 -1394 57 -1280 45 -1315 137 -12 32 -26 51 -35 51 -8 -1 -58 -14
-110 -31z m1760 -424 c259 -10 513 -14 608 -10 89 4 162 5 162 2 0 -2 -60 -45
-132 -95 -73 -49 -320 -236 -548 -415 -228 -178 -416 -324 -416 -323 -5 5
-274 849 -274 857 0 7 29 8 78 5 42 -3 277 -12 522 -21z"/>
<path d="M9930 18840 c-63 -27 -119 -51 -123 -52 -8 -3 87 -234 103 -251 7 -8
54 9 192 71 l66 30 -43 105 c-50 121 -63 147 -73 146 -4 0 -59 -23 -122 -49z"/>
<path d="M39865 18648 c-7 -18 -31 -75 -53 -126 l-41 -92 67 -31 c168 -76 183
-82 191 -73 10 11 113 246 109 249 -7 6 -243 105 -250 105 -5 0 -15 -15 -23
-32z"/>
<path d="M10160 18303 c-63 -30 -117 -56 -119 -59 -3 -3 104 -242 114 -252 1
-1 59 24 128 57 l126 59 -58 123 c-31 68 -62 124 -67 125 -5 1 -61 -22 -124
-53z"/>
<path d="M39583 18026 c-42 -83 -58 -126 -50 -129 7 -3 65 -30 130 -61 l118
-56 18 43 c10 23 37 80 59 127 23 46 40 85 39 87 -6 5 -239 113 -245 113 -4 0
-35 -56 -69 -124z"/>
<path d="M10415 17778 c-66 -33 -122 -62 -125 -65 -3 -3 112 -233 126 -251 4
-6 244 122 244 131 0 8 -119 247 -123 246 -1 0 -56 -27 -122 -61z"/>
<path d="M39323 17510 l-62 -120 122 -65 c142 -75 121 -83 203 77 l55 108
-121 60 c-66 33 -123 60 -127 60 -5 0 -36 -54 -70 -120z"/>
<path d="M7235 17540 c-49 -27 -94 -51 -100 -53 -5 -2 9 -40 33 -84 46 -87 52
-131 23 -157 -10 -9 -483 -262 -1052 -562 -569 -300 -1038 -549 -1042 -553 -9
-9 103 -230 117 -231 6 0 992 517 1118 586 8 5 133 -227 170 -316 29 -68 34
-113 19 -153 -5 -14 -164 -238 -352 -498 -188 -260 -353 -494 -366 -520 -29
-55 -32 -131 -8 -198 20 -57 117 -241 127 -241 9 0 198 100 198 105 0 2 -16
34 -35 72 -40 79 -46 140 -17 188 11 17 157 223 326 459 296 412 356 505 356
554 0 12 1 22 3 22 1 0 31 -10 67 -21 56 -17 162 -26 742 -61 373 -23 680 -39
684 -36 4 4 -106 238 -120 255 -1 1 -289 18 -641 38 -705 41 -682 37 -742 109
-28 34 -193 336 -193 353 0 4 189 107 421 228 231 121 438 235 460 254 52 43
69 79 69 141 0 44 -11 71 -76 198 -41 81 -81 152 -87 159 -9 9 -32 1 -102 -37z"/>
<path d="M10680 17256 c-72 -40 -114 -69 -112 -77 4 -18 122 -228 130 -233 4
-2 57 25 117 60 61 35 114 65 119 67 5 1 1 18 -9 37 -36 73 -118 210 -124 209
-3 0 -58 -29 -121 -63z"/>
<path d="M42453 17142 c-70 -132 -102 -210 -103 -251 0 -38 37 -107 73 -134
18 -14 233 -129 477 -257 245 -128 448 -236 453 -239 6 -6 -673 -1326 -691
-1342 -4 -4 -135 61 -292 143 -684 358 -680 356 -761 335 -56 -14 -101 -69
-183 -226 -42 -79 -76 -145 -76 -147 0 -5 189 -104 199 -104 6 0 28 35 50 78
45 89 60 105 100 104 16 0 462 -227 1076 -548 994 -518 1049 -546 1062 -528 8
11 37 63 64 116 l49 97 -133 69 c-72 38 -312 163 -532 277 -220 114 -404 211
-408 215 -12 10 691 1346 706 1342 6 -2 250 -127 540 -279 291 -151 530 -273
531 -271 10 11 118 230 115 232 -2 2 -472 247 -1044 544 -572 298 -1050 550
-1062 561 -32 27 -29 53 17 142 22 43 40 83 40 88 0 6 -45 33 -100 61 l-99 50
-68 -128z"/>
<path d="M39048 17010 c-38 -66 -68 -121 -68 -123 0 -3 44 -31 98 -62 53 -32
107 -65 118 -72 21 -13 24 -11 56 44 19 32 51 88 71 125 l36 66 -87 50 c-48
27 -103 59 -122 70 l-35 21 -67 -119z"/>
<path d="M10970 16749 c-63 -38 -114 -73 -113 -79 5 -19 134 -230 141 -230 3
0 59 32 124 71 l117 71 -36 57 c-20 31 -52 82 -71 114 -19 31 -37 59 -41 61
-3 2 -58 -28 -121 -65z"/>
<path d="M38748 16510 c-38 -60 -68 -113 -68 -118 0 -9 230 -155 236 -150 13
14 141 234 138 239 -6 10 -220 139 -230 139 -5 0 -39 -50 -76 -110z"/>
<path d="M11273 16246 l-112 -73 70 -109 c39 -60 74 -113 79 -117 4 -5 60 26
123 68 l116 77 -25 39 c-60 95 -126 189 -132 188 -4 0 -57 -33 -119 -73z"/>
<path d="M38435 16023 c-39 -59 -70 -111 -70 -116 0 -12 217 -157 226 -151 10
6 137 196 145 217 3 10 -30 37 -106 86 -61 39 -114 71 -118 71 -4 0 -39 -48
-77 -107z"/>
<path d="M11603 15764 l-112 -78 21 -35 c36 -60 132 -190 141 -191 5 0 57 35
116 77 l108 77 -59 85 c-32 47 -69 98 -81 114 l-22 28 -112 -77z"/>
<path d="M38124 15577 c-32 -45 -68 -96 -81 -113 l-23 -31 111 -82 c61 -46
115 -79 119 -74 48 55 160 217 154 222 -5 4 -57 42 -115 84 l-107 75 -58 -81z"/>
<path d="M11942 15286 l-112 -83 52 -69 c28 -38 66 -88 85 -111 l35 -42 99 76
c55 42 104 81 109 88 7 8 -13 43 -70 118 -44 59 -82 107 -83 107 -2 0 -54 -38
-115 -84z"/>
<path d="M37765 15099 c-39 -51 -76 -100 -83 -109 -12 -16 -3 -26 85 -97 54
-44 103 -82 109 -86 10 -6 192 210 183 217 -56 44 -218 166 -221 166 -2 0 -35
-41 -73 -91z"/>
<path d="M41234 14862 c-22 -31 -59 -85 -83 -118 l-43 -62 257 -588 c238 -545
257 -592 253 -635 -3 -26 -15 -66 -27 -89 -31 -60 -211 -310 -223 -310 -5 0
-183 123 -396 272 -213 150 -403 281 -424 291 -45 23 -115 24 -154 4 -16 -9
-43 -30 -60 -49 -35 -37 -194 -257 -194 -267 0 -9 168 -131 179 -131 5 0 26
24 47 53 60 83 85 107 115 107 19 0 291 -187 994 -685 533 -377 972 -685 976
-685 10 0 149 194 148 206 0 5 -234 173 -519 374 -313 220 -515 369 -511 375
5 5 50 69 101 140 142 199 172 225 253 225 24 0 293 -40 598 -90 305 -49 576
-90 603 -90 113 0 186 53 299 220 l57 85 -22 17 c-13 10 -55 40 -95 68 l-72
51 -52 -71 c-54 -74 -89 -100 -137 -100 -15 0 -262 36 -548 81 -536 83 -586
89 -666 76 l-48 -8 -1 43 c0 24 -8 66 -17 95 -21 64 -535 1253 -542 1252 -3 0
-23 -25 -46 -57z"/>
<path d="M12305 14830 c-55 -44 -100 -86 -100 -94 0 -9 37 -60 83 -116 74 -89
85 -99 101 -88 41 30 191 162 191 169 0 4 -15 25 -32 47 -18 22 -55 67 -81
101 -27 34 -52 61 -55 61 -4 0 -52 -36 -107 -80z"/>
<path d="M8733 14753 l-91 -66 48 -67 c77 -105 82 -140 27 -181 -12 -9 -451
-316 -975 -683 l-952 -668 51 -71 c28 -40 61 -87 72 -104 12 -18 26 -33 30
-33 5 0 238 161 518 358 280 196 514 358 521 359 15 3 210 -276 234 -334 33
-77 26 -92 -251 -597 -319 -583 -325 -597 -332 -661 -8 -75 13 -127 103 -261
l77 -113 71 50 c39 27 82 58 96 69 l24 18 -30 44 c-53 74 -77 128 -71 164 3
18 122 248 264 511 143 263 265 492 272 510 7 18 16 56 20 85 5 39 11 52 21
50 106 -26 145 -25 806 19 366 24 670 47 676 50 6 4 -23 53 -72 123 -75 107
-84 116 -113 116 -18 0 -286 -18 -596 -40 -311 -22 -588 -40 -617 -40 -67 0
-93 10 -143 56 -52 46 -246 323 -235 333 5 5 128 90 274 191 592 409 590 408
590 505 0 34 -8 67 -22 96 -27 53 -187 279 -196 278 -4 0 -48 -30 -99 -66z"/>
<path d="M37453 14711 c-12 -16 -52 -63 -89 -105 -57 -66 -65 -79 -53 -91 41
-39 194 -165 200 -165 10 0 174 197 174 209 0 7 -201 181 -209 181 -1 0 -12
-13 -23 -29z"/>
<path d="M12689 14389 c-52 -45 -100 -87 -107 -94 -11 -10 4 -31 78 -114 51
-56 96 -101 100 -99 15 6 200 172 200 180 0 5 -26 37 -58 71 -31 34 -71 79
-88 100 l-30 37 -95 -81z"/>
<path d="M37006 14196 c-47 -52 -86 -98 -86 -104 0 -11 188 -182 200 -182 9 0
194 200 189 204 -2 2 -48 42 -102 90 -54 47 -102 86 -106 86 -5 0 -47 -42 -95
-94z"/>
<path d="M13067 13945 c-71 -68 -96 -98 -90 -109 4 -8 48 -55 97 -106 l89 -92
100 100 99 99 -98 102 -99 101 -98 -95z"/>
<path d="M36612 13776 c-51 -51 -92 -98 -92 -103 0 -5 43 -51 95 -103 l96 -94
75 75 c42 41 85 87 96 102 l21 29 -54 55 c-30 30 -75 72 -100 93 l-46 39 -91
-93z"/>
<path d="M13472 13521 l-103 -96 103 -103 104 -102 96 103 96 103 -97 96 -96
96 -103 -97z"/>
<path d="M36197 13364 c-97 -95 -98 -97 -80 -118 35 -42 168 -176 175 -176 4
0 53 44 108 97 l101 97 -98 98 c-54 54 -100 98 -103 98 -3 0 -49 -44 -103 -96z"/>
<path d="M13935 13158 c-28 -29 -69 -74 -93 -99 l-43 -46 78 -76 c43 -41 90
-85 104 -96 l26 -20 93 105 c51 58 89 109 84 113 -5 4 -50 44 -100 89 -51 45
-93 82 -96 82 -2 0 -26 -24 -53 -52z"/>
<path d="M35773 12970 l-103 -93 50 -56 c27 -31 69 -78 92 -104 l43 -48 105
92 c58 50 106 92 107 93 1 1 -42 48 -95 105 l-97 104 -102 -93z"/>
<path d="M14323 12719 l-90 -102 86 -74 c47 -41 97 -82 110 -91 27 -18 12 -31
142 125 l59 71 -78 65 c-42 36 -86 74 -96 86 -11 11 -25 21 -31 21 -7 0 -53
-46 -102 -101z"/>
<path d="M35370 12622 c-36 -31 -83 -71 -105 -88 l-39 -31 89 -107 c57 -69 92
-103 99 -98 79 61 206 166 206 171 -1 7 -170 205 -179 208 -3 1 -35 -24 -71
-55z"/>
<path d="M14771 12344 c-46 -58 -80 -108 -75 -112 21 -18 123 -100 165 -134
l47 -38 83 110 c46 60 82 113 79 117 -10 15 -199 163 -207 162 -4 0 -46 -47
-92 -105z"/>
<path d="M9555 11879 c-643 -242 -1184 -442 -1201 -446 -39 -7 -84 16 -117 58
l-25 32 -86 -73 c-47 -41 -86 -77 -86 -82 0 -4 31 -43 70 -87 74 -84 147 -131
205 -131 54 0 133 26 465 150 177 66 326 120 330 118 10 -4 670 -769 676 -784
3 -6 -78 -161 -180 -345 -121 -217 -190 -351 -197 -385 -17 -76 4 -130 97
-243 68 -82 78 -91 93 -78 9 7 48 42 88 76 l72 63 -34 46 c-25 32 -35 55 -35
82 0 29 114 241 612 1136 336 604 612 1106 612 1115 1 17 -168 220 -182 218
-4 0 -533 -198 -1177 -440z m977 18 c-44 -69 -199 -337 -343 -596 -145 -259
-266 -468 -269 -464 -198 223 -579 677 -573 683 4 4 222 89 485 189 262 99
543 211 625 249 81 38 150 67 152 66 2 -2 -33 -59 -77 -127z"/>
<path d="M34882 12231 c-57 -43 -104 -82 -105 -86 -1 -13 157 -215 168 -215 5
1 58 38 116 83 l106 83 -83 104 c-46 58 -87 106 -91 107 -5 1 -55 -33 -111
-76z"/>
<path d="M38272 12173 l-70 -77 40 -46 c55 -62 70 -94 76 -166 13 -161 -142
-316 -302 -302 -61 5 -110 27 -164 74 l-40 34 -71 -76 c-40 -42 -70 -82 -68
-88 7 -23 123 -107 177 -128 73 -30 220 -32 298 -4 78 27 195 109 248 174 155
190 174 411 50 580 -20 27 -51 61 -70 76 l-34 26 -70 -77z"/>
<path d="M39117 12137 l-86 -94 239 -1169 c131 -643 258 -1250 283 -1349 25
-99 45 -181 43 -182 -1 -2 -44 44 -94 101 -122 137 -1389 1333 -1450 1368 -99
58 -156 34 -314 -131 -65 -68 -118 -126 -118 -130 0 -4 36 -43 81 -86 l80 -78
72 71 c59 58 78 72 104 72 27 0 131 -95 898 -821 l867 -820 84 88 c46 48 83
96 84 107 0 10 -104 530 -230 1155 -198 975 -289 1385 -337 1518 -3 10 95 -81
218 -202 400 -393 1279 -1219 1327 -1248 39 -23 56 -27 99 -24 70 5 107 31
238 171 l109 117 -85 79 -84 78 -70 -69 c-117 -114 -11 -192 -971 717 -456
432 -845 802 -865 821 l-36 34 -86 -94z"/>
<path d="M15236 11988 l-85 -112 112 -82 c61 -45 114 -81 118 -78 3 2 41 52
84 111 l78 107 -29 23 c-16 12 -66 49 -111 83 l-83 60 -84 -112z"/>
<path d="M34408 11880 l-107 -78 80 -111 c44 -61 83 -111 85 -111 18 0 223
157 219 167 -9 26 -150 212 -160 212 -5 -1 -58 -36 -117 -79z"/>
<path d="M15777 11742 c-26 -31 -149 -213 -145 -216 61 -44 231 -157 233 -154
8 8 154 233 152 234 -1 1 -52 35 -114 77 -102 69 -113 74 -126 59z"/>
<path d="M33938 11557 c-60 -39 -108 -75 -108 -79 0 -11 140 -228 148 -228 4
0 219 136 231 146 6 5 -150 234 -158 233 -3 0 -54 -33 -113 -72z"/>
<path d="M11325 11475 c-38 -44 -70 -86 -70 -91 0 -6 30 -37 68 -69 70 -60 87
-91 69 -128 -6 -12 -99 -121 -207 -242 -108 -121 -220 -251 -247 -290 -228
-317 -190 -636 112 -935 163 -162 377 -278 630 -340 25 -6 51 -13 59 -16 10
-3 -5 -25 -51 -72 -36 -37 -213 -236 -393 -442 -180 -206 -338 -386 -351 -400
l-23 -25 94 -82 c52 -46 98 -83 104 -83 5 0 404 449 887 997 l878 997 -65 59
c-35 32 -80 71 -99 86 l-35 28 -381 -431 -380 -431 -65 1 c-45 1 -98 13 -171
37 -178 60 -293 126 -415 240 -195 183 -251 380 -161 568 47 98 87 150 337
434 116 132 221 259 232 283 29 60 23 137 -15 187 -25 32 -213 203 -255 231
-13 9 -28 -3 -86 -71z"/>
<path d="M16206 11337 c-33 -50 -66 -102 -73 -113 -13 -20 -8 -25 94 -91 59
-38 113 -73 120 -76 7 -4 38 37 82 108 39 64 71 119 71 123 0 9 -212 142 -226
142 -5 0 -36 -42 -68 -93z"/>
<path d="M33520 11288 c-19 -12 -70 -42 -112 -68 l-77 -47 71 -119 c39 -65 72
-120 73 -122 5 -7 230 141 230 151 0 19 -129 227 -140 227 -5 0 -26 -10 -45
-22z"/>
<path d="M16709 11043 c-28 -49 -60 -102 -71 -120 l-18 -31 120 -72 c67 -40
124 -69 128 -65 4 3 37 59 73 123 l66 117 -76 41 c-42 22 -95 52 -118 67 -24
15 -45 27 -47 27 -3 0 -28 -39 -57 -87z"/>
<path d="M32956 10954 c-61 -35 -114 -65 -119 -67 -9 -3 119 -247 129 -247 12
0 244 134 242 140 -11 24 -131 231 -136 234 -4 2 -56 -25 -116 -60z"/>
<path d="M17203 10725 c-35 -63 -63 -118 -63 -122 0 -9 193 -117 227 -127 19
-6 28 6 83 114 34 67 60 123 58 124 -17 13 -228 126 -235 126 -4 0 -36 -52
-70 -115z"/>
<path d="M32443 10676 c-56 -28 -107 -56 -113 -62 -8 -8 5 -44 50 -133 33 -67
64 -121 68 -119 4 2 62 31 129 65 l121 62 -66 121 c-36 66 -71 120 -76 119 -6
-1 -57 -24 -113 -53z"/>
<path d="M17716 10451 c-31 -66 -56 -122 -56 -125 0 -6 111 -63 195 -101 l56
-24 60 126 c32 69 58 128 56 129 -7 8 -236 114 -245 114 -5 0 -34 -54 -66
-119z"/>
<path d="M31919 10416 l-126 -61 59 -126 60 -127 126 60 c70 33 128 61 130 63
2 2 -25 59 -60 127 l-63 125 -126 -61z"/>
<path d="M18247 10202 c-32 -69 -54 -129 -50 -133 9 -9 195 -92 229 -103 19
-6 26 6 72 111 29 65 52 123 52 129 0 5 -33 25 -72 43 -40 18 -96 43 -123 56
l-51 23 -57 -126z"/>
<path d="M31390 10178 c-63 -28 -117 -53 -119 -54 -4 -4 89 -235 100 -248 4
-5 51 10 106 34 54 23 110 47 126 53 15 6 27 14 27 17 0 16 -107 244 -115 246
-6 2 -62 -20 -125 -48z"/>
<path d="M18781 9964 c-28 -70 -51 -128 -49 -129 9 -10 253 -103 258 -100 9 5
103 255 98 259 -7 4 -244 96 -249 96 -3 0 -29 -57 -58 -126z"/>
<path d="M37075 10030 c-311 -49 -576 -187 -793 -414 -181 -189 -288 -394
-343 -659 -31 -143 -31 -371 -1 -513 31 -145 66 -243 133 -374 76 -147 162
-262 286 -380 117 -112 213 -180 349 -248 195 -98 384 -142 600 -143 139 0
223 10 344 41 424 109 785 447 920 861 50 152 64 247 64 429 0 183 -14 276
-65 433 -67 207 -179 394 -327 549 -202 210 -421 335 -702 400 -98 22 -368 33
-465 18z m365 -266 c460 -87 824 -468 916 -959 24 -132 15 -356 -20 -485 -154
-561 -732 -884 -1294 -724 -401 114 -717 443 -830 863 -23 86 -26 114 -25 266
0 142 3 183 21 248 113 414 413 703 823 792 89 19 307 19 409 -1z"/>
<path d="M30885 9970 c-55 -21 -113 -43 -129 -49 -15 -6 -26 -17 -24 -24 35
-103 95 -247 102 -247 12 0 239 90 248 99 5 4 -85 247 -96 258 0 1 -46 -16
-101 -37z"/>
<path d="M13148 9871 l-67 -98 99 -68 c54 -38 96 -74 92 -80 -3 -5 -292 -415
-642 -910 -351 -495 -647 -920 -660 -944 -17 -35 -21 -56 -18 -97 8 -94 -33
-61 776 -632 339 -239 380 -261 454 -242 56 16 100 59 199 199 l88 124 -22 17
c-91 69 -179 123 -185 113 -41 -65 -111 -155 -129 -164 -12 -6 -32 -9 -45 -6
-29 8 -784 538 -816 574 -18 20 -22 34 -18 55 7 35 533 773 550 772 7 -1 188
-126 404 -278 215 -153 394 -278 399 -279 8 -1 133 171 133 184 0 4 -173 129
-384 278 -210 149 -392 278 -403 288 -20 18 -17 23 259 408 153 215 284 389
290 387 13 -3 669 -464 726 -509 59 -48 57 -74 -15 -179 -34 -51 -53 -88 -47
-93 21 -19 178 -131 184 -131 8 0 169 229 190 270 41 78 30 151 -33 215 -31
31 -1208 873 -1282 917 -5 3 -40 -38 -77 -91z"/>
<path d="M19327 9753 c-25 -71 -43 -131 -38 -136 13 -13 246 -95 253 -88 4 3
27 63 52 133 l45 126 -126 46 c-68 25 -128 46 -132 46 -5 0 -29 -57 -54 -127z"/>
<path d="M30300 9758 c-63 -23 -116 -42 -117 -43 -4 -3 79 -249 87 -258 6 -7
219 60 254 80 19 11 -71 263 -93 262 -9 0 -68 -19 -131 -41z"/>
<path d="M19879 9559 c-23 -72 -38 -134 -33 -138 10 -8 233 -81 249 -81 6 0
29 60 51 134 l41 134 -86 26 c-47 14 -107 32 -133 40 l-48 15 -41 -130z"/>
<path d="M29770 9581 c-63 -20 -121 -39 -128 -41 -9 -4 -3 -36 24 -130 20 -69
39 -128 43 -132 5 -6 256 64 267 74 5 5 -79 268 -85 267 -3 -1 -58 -18 -121
-38z"/>
<path d="M20441 9403 c-18 -65 -35 -126 -37 -135 -4 -13 3 -21 23 -29 45 -17
237 -68 242 -64 6 7 71 239 71 257 0 11 -15 20 -52 28 -29 7 -89 23 -132 36
-44 13 -80 24 -81 24 -1 0 -16 -53 -34 -117z"/>
<path d="M29275 9439 c-33 -10 -93 -26 -132 -36 -40 -9 -73 -19 -73 -22 0 -10
68 -263 72 -266 2 -2 63 13 136 32 88 24 132 40 132 50 0 11 -69 255 -74 259
0 1 -28 -6 -61 -17z"/>
<path d="M21000 9233 c-18 -74 -31 -136 -29 -138 2 -2 64 -18 137 -37 l133
-34 5 21 c3 12 18 74 33 138 l28 117 -36 9 c-20 4 -81 19 -137 33 l-101 24
-33 -133z"/>
<path d="M28632 9280 c-62 -15 -116 -31 -119 -34 -4 -3 7 -66 23 -140 l29
-133 130 29 c72 17 134 34 139 38 5 5 -5 64 -24 139 -25 103 -36 131 -49 130
-9 -1 -67 -14 -129 -29z"/>
<path d="M21595 9218 c-15 -47 -53 -254 -47 -259 9 -9 263 -61 268 -56 7 6 57
267 53 271 -4 4 -250 56 -264 56 -3 0 -7 -6 -10 -12z"/>
<path d="M28070 9162 c-69 -14 -127 -27 -129 -28 -5 -4 41 -251 49 -264 5 -8
46 -4 140 14 73 14 134 27 136 29 2 1 -3 30 -10 62 -8 33 -21 95 -31 138 -9
42 -19 77 -23 76 -4 -1 -63 -13 -132 -27z"/>
<path d="M22141 8984 c-12 -74 -21 -137 -19 -139 10 -11 278 -50 278 -41 0 6
11 70 24 142 l23 130 -136 22 c-75 12 -138 22 -141 22 -3 0 -16 -61 -29 -136z"/>
<path d="M27483 9061 c-56 -9 -105 -19 -109 -23 -3 -4 1 -68 11 -142 l19 -135
25 4 c14 3 77 12 139 21 97 14 112 19 112 35 0 20 -27 198 -35 237 -6 26 -15
26 -162 3z"/>
<path d="M22740 9024 c0 -5 -9 -67 -20 -139 -10 -71 -18 -131 -16 -133 8 -7
267 -35 273 -29 3 4 12 51 19 104 7 54 16 114 18 134 l6 36 -103 12 c-56 7
-119 15 -139 18 -21 3 -38 2 -38 -3z"/>
<path d="M26900 8983 c-57 -7 -106 -16 -108 -18 -4 -4 10 -145 24 -238 l6 -38
66 6 c82 7 205 25 209 29 2 2 -3 61 -12 132 -8 71 -15 132 -15 137 0 10 -46 7
-170 -10z"/>
<path d="M23302 8848 c-18 -173 -19 -166 31 -172 156 -19 230 -26 233 -23 6 5
23 191 24 243 l0 41 -97 7 c-54 4 -116 9 -139 12 l-41 6 -11 -114z"/>
<path d="M26322 8927 l-114 -9 6 -47 c3 -25 8 -90 12 -144 l6 -99 32 6 c17 3
78 8 136 12 58 3 107 8 111 10 3 1 -1 56 -7 121 -7 65 -13 128 -13 141 -1 25
8 24 -169 9z"/>
<path d="M23889 8863 c0 -26 -4 -89 -7 -140 l-7 -92 55 -5 c30 -3 94 -8 141
-12 l86 -6 6 83 c4 46 7 110 7 141 0 57 0 57 -32 62 -18 3 -81 8 -140 11
l-108 6 -1 -48z"/>
<path d="M25768 8891 c-70 -4 -129 -9 -132 -12 -3 -3 -2 -67 1 -143 l6 -138
45 6 c25 3 89 6 143 6 l99 0 -6 93 c-7 135 -15 197 -22 195 -4 -1 -64 -4 -134
-7z"/>
<path d="M35160 8819 c-68 -39 -125 -71 -126 -72 -1 -1 -10 -283 -18 -627 -9
-344 -21 -642 -27 -663 -16 -59 -73 -107 -245 -205 -89 -51 -164 -92 -167 -92
-3 0 -112 190 -243 422 -131 232 -251 437 -267 454 -15 18 -48 40 -72 50 -38
14 -52 15 -92 5 -41 -10 -300 -146 -327 -171 -9 -9 93 -200 108 -200 5 0 41
18 81 40 91 50 125 52 158 8 13 -18 277 -481 587 -1028 310 -547 568 -1002
574 -1011 10 -14 24 -9 121 47 61 34 109 66 108 71 -1 4 -141 255 -312 557
l-311 550 123 69 c231 130 278 148 341 127 19 -6 250 -158 513 -337 263 -179
502 -337 532 -351 45 -21 64 -24 116 -19 53 4 83 15 182 66 65 35 123 68 130
74 9 9 0 34 -42 107 -30 52 -58 95 -62 95 -5 -1 -42 -18 -83 -38 -126 -62 -85
-81 -622 280 -440 295 -536 353 -589 353 -16 0 -19 4 -14 18 27 68 36 197 55
821 12 365 20 665 18 666 -2 2 -59 -28 -128 -66z"/>
<path d="M24467 8743 c-4 -75 -6 -138 -4 -139 1 -2 67 -6 145 -10 l142 -7 0
147 0 146 -138 0 -139 0 -6 -137z"/>
<path d="M25133 8873 l-83 -4 0 -139 0 -140 145 0 145 0 0 53 c0 30 -3 95 -6
145 l-7 92 -56 -2 c-31 -1 -93 -4 -138 -5z"/>
<path d="M15285 8349 c-457 -61 -843 -349 -1055 -784 -304 -624 -164 -1302
349 -1688 327 -247 765 -342 1160 -252 36 9 71 19 77 23 9 5 7 38 -7 121 -10
62 -19 114 -21 116 -2 2 -43 -6 -93 -18 -123 -28 -363 -30 -485 -4 -228 49
-419 149 -565 294 -286 286 -376 713 -236 1123 61 183 164 352 298 491 137
143 316 250 498 299 120 33 320 38 445 12 221 -46 394 -142 573 -319 145 -143
222 -286 215 -399 -3 -49 -12 -75 -51 -144 -26 -46 -46 -84 -45 -85 24 -17
200 -115 207 -115 13 0 130 211 148 268 22 72 12 189 -24 283 -46 117 -114
211 -252 350 -224 223 -469 360 -741 414 -96 19 -305 27 -395 14z"/>
<path d="M17003 7570 c-18 -10 -40 -34 -50 -52 -31 -58 -141 -338 -135 -342
18 -11 196 -76 207 -76 7 0 30 43 51 95 41 105 52 119 92 118 26 0 619 -227
635 -243 5 -4 -185 -511 -422 -1126 -237 -615 -432 -1124 -434 -1132 -1 -8 39
-29 116 -59 64 -25 119 -44 121 -42 2 2 198 508 436 1124 238 616 437 1124
441 1129 10 11 622 -221 649 -246 28 -26 25 -50 -15 -152 -19 -49 -35 -93 -35
-96 0 -4 42 -23 93 -43 50 -19 99 -38 109 -42 13 -5 27 21 78 152 74 187 83
242 48 293 -13 19 -46 47 -73 62 -41 21 -1665 651 -1774 687 -50 16 -102 13
-138 -9z"/>
<path d="M32895 7574 c-16 -3 -79 -14 -138 -25 -572 -106 -975 -485 -1088
-1022 -17 -78 -22 -138 -22 -257 -1 -184 16 -292 73 -463 193 -578 666 -963
1221 -994 460 -25 928 212 1200 609 56 82 139 240 139 262 -1 11 -199 131
-204 124 -2 -2 -21 -40 -43 -84 -155 -312 -426 -537 -756 -626 -121 -33 -366
-33 -487 0 -430 117 -755 479 -856 954 -26 124 -24 345 4 461 47 191 124 335
249 467 169 179 373 284 631 326 133 22 315 15 393 -15 112 -43 150 -84 200
-216 11 -30 26 -55 32 -55 21 0 217 82 217 91 0 17 -82 214 -106 256 -48 82
-152 153 -279 188 -59 16 -313 29 -380 19z"/>
<path d="M30995 6863 c-146 -38 -1825 -528 -1844 -538 -14 -7 -39 -27 -56 -45
-27 -28 -30 -38 -29 -93 1 -59 74 -340 94 -360 6 -7 216 45 225 55 1 2 -10 48
-26 103 -34 118 -34 117 -11 145 14 17 89 42 345 114 l326 93 10 -31 c6 -17
157 -537 337 -1156 179 -619 329 -1130 333 -1136 4 -8 43 -1 125 22 65 18 120
34 122 37 2 2 -147 522 -331 1155 -184 634 -335 1159 -337 1168 -2 13 60 35
324 111 219 64 336 93 353 89 30 -8 45 -36 75 -141 13 -44 25 -82 27 -84 1 -2
54 11 116 29 l114 32 -44 152 c-50 170 -76 230 -114 259 -27 19 -97 30 -134
20z"/>
<path d="M19232 6683 c-17 -60 -28 -111 -24 -114 4 -3 56 -19 115 -35 105 -28
108 -30 103 -54 -2 -14 -142 -500 -311 -1080 -322 -1111 -326 -1129 -291
-1198 20 -39 67 -74 126 -96 86 -31 748 -215 815 -227 106 -18 284 -7 380 24
248 81 422 287 482 572 23 109 14 289 -20 385 -34 97 -106 201 -178 258 -32
26 -56 49 -53 53 2 4 21 10 41 14 98 18 234 104 309 197 125 152 189 422 145
608 -30 126 -109 251 -214 338 -115 94 -183 120 -798 297 -316 91 -579 165
-585 165 -6 0 -25 -48 -42 -107z m1155 -469 c171 -83 260 -273 220 -468 -34
-165 -127 -295 -255 -358 -57 -28 -78 -33 -161 -36 -96 -3 -97 -3 -424 92
-181 52 -330 96 -332 98 -4 3 233 833 249 874 6 15 620 -161 703 -202z m-663
-994 c360 -103 431 -133 515 -219 159 -160 184 -384 71 -619 -95 -199 -287
-304 -496 -273 -86 13 -658 177 -692 199 -12 8 -25 24 -27 36 -5 17 255 941
272 969 3 4 12 6 21 3 10 -3 160 -46 336 -96z"/>
<path d="M28590 6253 c-1111 -187 -1516 -256 -1518 -258 -7 -6 34 -218 44
-222 6 -2 61 5 122 15 l111 19 10 -51 c6 -28 92 -530 191 -1116 142 -837 185
-1075 203 -1110 27 -54 89 -90 153 -90 38 0 1115 176 1229 201 113 25 175 90
175 184 -1 48 -44 322 -53 331 -3 4 -58 -2 -122 -12 -129 -20 -122 -12 -100
-114 21 -98 19 -135 -9 -157 -17 -14 -141 -39 -508 -101 -537 -92 -529 -92
-548 -25 -14 48 -161 906 -156 910 2 2 212 40 467 84 255 43 476 82 490 84
l25 6 -20 112 c-11 62 -20 113 -21 114 -1 2 -221 -35 -490 -82 -269 -46 -490
-83 -491 -82 -9 9 -164 951 -157 957 11 9 868 150 915 150 48 0 62 -25 79
-140 7 -47 15 -89 19 -93 7 -8 225 25 235 35 7 7 -43 288 -60 334 -21 56 -70
101 -125 113 -47 11 -49 11 -90 4z"/>
<path d="M22156 6048 c-24 -46 -292 -551 -596 -1123 -303 -572 -561 -1048
-573 -1058 -17 -13 -37 -17 -87 -15 l-65 3 -16 -113 c-11 -80 -12 -115 -5
-118 24 -7 170 -24 214 -24 63 1 120 28 163 78 20 23 114 190 209 372 l174
330 30 -5 c17 -3 251 -34 519 -69 269 -36 490 -66 491 -68 1 -2 40 -169 85
-373 46 -203 92 -389 103 -413 38 -80 97 -110 264 -133 46 -7 87 -9 90 -6 5 5
33 183 34 213 0 7 -19 15 -43 18 -54 8 -105 39 -117 71 -5 13 -132 575 -281
1247 -149 673 -273 1225 -274 1226 -2 2 -50 10 -107 18 -57 7 -117 16 -135 19
-31 6 -33 4 -77 -77z m169 -389 c14 -85 75 -382 137 -661 61 -279 109 -510
106 -514 -7 -7 -869 106 -880 115 -4 4 99 209 229 456 195 371 322 629 366
749 4 10 10 17 12 14 3 -3 16 -74 30 -159z"/>
<path d="M25595 5934 c-302 -6 -567 -12 -587 -13 l-38 -1 0 -62 c0 -35 3 -87
7 -116 l6 -54 113 4 112 3 7 -185 c10 -235 0 -649 -19 -850 -36 -366 -108
-650 -231 -907 -42 -88 -127 -236 -151 -262 -2 -2 -44 -7 -93 -11 -102 -9
-141 -27 -174 -80 -21 -34 -22 -46 -25 -354 -2 -188 1 -323 6 -328 6 -6 57 -7
126 -2 l116 7 0 243 c0 231 1 245 20 264 11 11 26 20 33 20 6 0 354 7 772 15
992 19 1146 19 1171 1 18 -13 19 -32 24 -259 3 -135 7 -247 10 -249 3 -2 58
-2 124 0 l118 4 -5 301 c-5 332 -9 359 -64 407 -42 37 -89 50 -184 50 l-77 0
-6 143 c-3 78 -13 584 -21 1125 -18 1083 -16 1054 -80 1111 -66 58 -50 57
-1010 35z m782 -239 c12 -9 24 -30 27 -48 3 -18 13 -502 22 -1075 13 -815 14
-1046 5 -1051 -7 -5 -218 -11 -469 -15 -251 -3 -551 -9 -665 -13 l-208 -6 42
69 c136 223 237 534 288 889 38 266 45 390 46 827 l0 428 190 3 c589 9 700 7
722 -8z"/>
</g>
</svg>
