<svg width="16" height="16" viewBox="0 0 16 16" fill="none" xmlns="http://www.w3.org/2000/svg">
<path d="M14.7998 9C15.3521 9 15.7998 8.55228 15.7998 8C15.7998 7.44772 15.3521 7 14.7998 7L14.7998 9ZM0.492698 7.29289C0.102173 7.68342 0.102173 8.31658 0.492698 8.70711L6.85666 15.0711C7.24718 15.4616 7.88035 15.4616 8.27087 15.0711C8.6614 14.6805 8.6614 14.0474 8.27087 13.6569L2.61402 8L8.27087 2.34315C8.6614 1.95262 8.6614 1.31946 8.27087 0.928932C7.88035 0.538408 7.24718 0.538408 6.85666 0.928932L0.492698 7.29289ZM14.7998 7L1.1998 7L1.1998 9L14.7998 9L14.7998 7Z" fill="#BDC87A"/>
</svg>
