<svg width="12" height="8" viewBox="0 0 12 8" fill="none" xmlns="http://www.w3.org/2000/svg">
<path d="M10.8008 4.55322C11.0769 4.55322 11.3008 4.32937 11.3008 4.05322C11.3008 3.77708 11.0769 3.55322 10.8008 3.55322L10.8008 4.55322ZM0.847227 3.69967C0.651965 3.89493 0.651965 4.21151 0.847227 4.40678L4.02921 7.58876C4.22447 7.78402 4.54105 7.78402 4.73631 7.58876C4.93158 7.39349 4.93158 7.07691 4.73631 6.88165L1.90789 4.05322L4.73631 1.2248C4.93158 1.02953 4.93158 0.712951 4.73631 0.517689C4.54105 0.322427 4.22447 0.322427 4.02921 0.517689L0.847227 3.69967ZM10.8008 3.55322L1.20078 3.55322L1.20078 4.55322L10.8008 4.55322L10.8008 3.55322Z" fill="#BDC87A"/>
</svg>
