<svg width="12" height="8" viewBox="0 0 12 8" fill="none" xmlns="http://www.w3.org/2000/svg">
<path d="M1.19922 3.55322C0.923076 3.55322 0.699219 3.77708 0.699219 4.05322C0.699219 4.32937 0.923076 4.55322 1.19922 4.55322L1.19922 3.55322ZM11.1528 4.40678C11.348 4.21151 11.348 3.89493 11.1528 3.69967L7.97079 0.517688C7.77553 0.322426 7.45895 0.322426 7.26368 0.517688C7.06842 0.71295 7.06842 1.02953 7.26368 1.22479L10.0921 4.05322L7.26369 6.88165C7.06842 7.07691 7.06842 7.39349 7.26369 7.58876C7.45895 7.78402 7.77553 7.78402 7.97079 7.58876L11.1528 4.40678ZM1.19922 4.55322L10.7992 4.55322L10.7992 3.55322L1.19922 3.55322L1.19922 4.55322Z" fill="white"/>
</svg>
