<svg width="16" height="16" viewBox="0 0 16 16" fill="none" xmlns="http://www.w3.org/2000/svg">
<path d="M1.2002 7C0.64791 7 0.200195 7.44772 0.200195 8C0.200195 8.55228 0.647911 9 1.2002 9L1.2002 7ZM15.5073 8.70711C15.8978 8.31658 15.8978 7.68342 15.5073 7.29289L9.14334 0.928931C8.75282 0.538407 8.11965 0.538407 7.72913 0.928932C7.3386 1.31946 7.3386 1.95262 7.72913 2.34315L13.386 8L7.72913 13.6569C7.3386 14.0474 7.3386 14.6805 7.72913 15.0711C8.11965 15.4616 8.75282 15.4616 9.14334 15.0711L15.5073 8.70711ZM1.2002 9L14.8002 9L14.8002 7L1.2002 7L1.2002 9Z" fill="white"/>
</svg>
