<svg width="18" height="18" viewBox="0 0 18 18" fill="none" xmlns="http://www.w3.org/2000/svg">
<path d="M9.00033 17.2917H13.167V15.625H9.00033C5.38366 15.625 2.33366 12.575 2.33366 8.95833C2.33366 5.34167 5.38366 2.29167 9.00033 2.29167C12.617 2.29167 15.667 5.34167 15.667 8.95833V10.15C15.667 10.8083 15.0753 11.4583 14.417 11.4583C13.7587 11.4583 13.167 10.8083 13.167 10.15V8.95833C13.167 6.65833 11.3003 4.79167 9.00033 4.79167C6.70033 4.79167 4.83366 6.65833 4.83366 8.95833C4.83366 11.2583 6.70033 13.125 9.00033 13.125C10.1503 13.125 11.2003 12.6583 11.9503 11.9C12.492 12.6417 13.4253 13.125 14.417 13.125C16.0587 13.125 17.3337 11.7917 17.3337 10.15V8.95833C17.3337 4.35833 13.6003 0.625 9.00033 0.625C4.40033 0.625 0.666992 4.35833 0.666992 8.95833C0.666992 13.5583 4.40033 17.2917 9.00033 17.2917ZM9.00033 11.4583C7.61699 11.4583 6.50033 10.3417 6.50033 8.95833C6.50033 7.575 7.61699 6.45833 9.00033 6.45833C10.3837 6.45833 11.5003 7.575 11.5003 8.95833C11.5003 10.3417 10.3837 11.4583 9.00033 11.4583Z" fill="white"/>
</svg>
