<svg width="18" height="18" viewBox="0 0 18 18" fill="none" xmlns="http://www.w3.org/2000/svg">
<path d="M8.99935 17.2917H13.166V15.625H8.99935C5.38268 15.625 2.33268 12.575 2.33268 8.95833C2.33268 5.34167 5.38268 2.29167 8.99935 2.29167C12.616 2.29167 15.666 5.34167 15.666 8.95833V10.15C15.666 10.8083 15.0743 11.4583 14.416 11.4583C13.7577 11.4583 13.166 10.8083 13.166 10.15V8.95833C13.166 6.65833 11.2993 4.79167 8.99935 4.79167C6.69935 4.79167 4.83268 6.65833 4.83268 8.95833C4.83268 11.2583 6.69935 13.125 8.99935 13.125C10.1493 13.125 11.1993 12.6583 11.9493 11.9C12.491 12.6417 13.4243 13.125 14.416 13.125C16.0577 13.125 17.3327 11.7917 17.3327 10.15V8.95833C17.3327 4.35833 13.5993 0.625 8.99935 0.625C4.39935 0.625 0.666016 4.35833 0.666016 8.95833C0.666016 13.5583 4.39935 17.2917 8.99935 17.2917ZM8.99935 11.4583C7.61602 11.4583 6.49935 10.3417 6.49935 8.95833C6.49935 7.575 7.61602 6.45833 8.99935 6.45833C10.3827 6.45833 11.4993 7.575 11.4993 8.95833C11.4993 10.3417 10.3827 11.4583 8.99935 11.4583Z" fill="#BD6D6E"/>
</svg>
