<svg width="26" height="26" viewBox="0 0 26 26" fill="none" xmlns="http://www.w3.org/2000/svg">
<path fill-rule="evenodd" clip-rule="evenodd" d="M1 13C1 6.37258 6.37258 1 13 1C19.6274 1 25 6.37258 25 13C25 19.6274 19.6274 25 13 25C6.37258 25 1 19.6274 1 13Z" stroke="white"/>
<path fill-rule="evenodd" clip-rule="evenodd" d="M18.0004 8.87476C18.5512 9.02589 18.9849 9.4712 19.1321 10.0367C19.3996 11.0616 19.3996 13.2001 19.3996 13.2001C19.3996 13.2001 19.3996 15.3385 19.1321 16.3635C18.9849 16.929 18.5512 17.3743 18.0004 17.5255C17.0023 17.8001 12.9996 17.8001 12.9996 17.8001C12.9996 17.8001 8.99692 17.8001 7.99874 17.5255C7.44797 17.3743 7.01423 16.929 6.86703 16.3635C6.59961 15.3385 6.59961 13.2001 6.59961 13.2001C6.59961 13.2001 6.59961 11.0616 6.86703 10.0367C7.01423 9.4712 7.44797 9.02589 7.99874 8.87476C8.99692 8.6001 12.9996 8.6001 12.9996 8.6001C12.9996 8.6001 17.0023 8.6001 18.0004 8.87476ZM11.7996 11.4001V15.4001L14.9996 13.4001L11.7996 11.4001Z" fill="white"/>
</svg>
