<svg width="26" height="26" viewBox="0 0 26 26" fill="none" xmlns="http://www.w3.org/2000/svg">
<path fill-rule="evenodd" clip-rule="evenodd" d="M13.001 1.5C6.6497 1.5 1.50098 6.64873 1.50098 13C1.50098 19.3513 6.6497 24.5 13.001 24.5C19.3523 24.5 24.501 19.3513 24.501 13C24.501 6.64873 19.3523 1.5 13.001 1.5ZM0.500977 13C0.500977 6.09644 6.09742 0.5 13.001 0.5C19.9045 0.5 25.501 6.09644 25.501 13C25.501 19.9036 19.9045 25.5 13.001 25.5C6.09742 25.5 0.500977 19.9036 0.500977 13Z" fill="white"/>
<path d="M6.30362 12.6494C9.73635 11.1254 12.0248 10.1206 13.1691 9.63516C16.4399 8.24898 17.1188 8.00823 17.5621 8.00007C17.6596 7.99848 17.8767 8.02304 18.0183 8.13976C18.1361 8.2382 18.1692 8.37132 18.1857 8.46479C18.2005 8.55816 18.2207 8.77098 18.2041 8.9371C18.0275 10.8346 17.2604 15.4392 16.8704 17.5645C16.7067 18.4638 16.3811 18.7653 16.0665 18.7947C15.3822 18.8589 14.8634 18.3342 14.2011 17.8919C13.1654 17.1995 12.5804 16.7686 11.5741 16.093C10.4115 15.3123 11.1657 14.8831 11.828 14.1819C12.0009 13.9983 15.0142 11.2055 15.0713 10.9522C15.0786 10.9205 15.086 10.8024 15.0161 10.7401C14.948 10.6777 14.8468 10.699 14.7732 10.7159C14.6684 10.7399 13.0146 11.8552 9.80626 14.0615C9.33715 14.3904 8.9122 14.5507 8.52956 14.5422C8.11013 14.533 7.30069 14.3 6.69913 14.1009C5.96329 13.8565 5.37645 13.7274 5.42795 13.3124C5.45371 13.0964 5.74621 12.8754 6.30362 12.6494Z" fill="white"/>
</svg>
