<svg width="26" height="26" viewBox="0 0 26 26" fill="none" xmlns="http://www.w3.org/2000/svg">
<path fill-rule="evenodd" clip-rule="evenodd" d="M13.001 1.5C6.6497 1.5 1.50098 6.64873 1.50098 13C1.50098 19.3513 6.6497 24.5 13.001 24.5C19.3523 24.5 24.501 19.3513 24.501 13C24.501 6.64873 19.3523 1.5 13.001 1.5ZM0.500977 13C0.500977 6.09644 6.09742 0.5 13.001 0.5C19.9045 0.5 25.501 6.09644 25.501 13C25.501 19.9036 19.9045 25.5 13.001 25.5C6.09742 25.5 0.500977 19.9036 0.500977 13Z" fill="white"/>
<path d="M18.938 16.0725C18.6768 15.5862 17.6155 14.5387 17.6155 14.5387C16.6368 13.6225 16.6368 13.5612 17.558 12.3537L18.0118 11.755C19.028 10.3787 19.093 9.92497 19.038 9.77622C19.0068 9.68247 18.8405 9.64622 18.598 9.64622H16.3718C16.3179 9.64557 16.2647 9.65801 16.2168 9.68247C16.1551 9.71924 16.1024 9.81115 16.0812 9.84822C16.08 9.85022 16.078 9.85372 16.078 9.85372C15.8689 10.4018 15.6203 10.934 15.3343 11.4462C14.4068 13.0375 14.0643 13.0375 13.9505 13.0375C13.9001 13.0373 13.8507 13.023 13.808 12.9962C13.4813 12.7805 13.4954 12.2563 13.5079 11.7934L13.508 11.79C13.508 11.7461 13.509 11.7036 13.51 11.6625C13.5109 11.6238 13.5118 11.5863 13.5118 11.55C13.5118 11.205 13.523 10.9125 13.5343 10.6537C13.5705 9.74247 13.5618 9.47622 13.1493 9.37747C12.9455 9.32622 12.8005 9.28997 12.238 9.28247H11.9493C11.4305 9.28247 10.908 9.30372 10.618 9.44872C10.5193 9.49815 10.434 9.57061 10.3693 9.65997C10.5293 9.68997 10.793 9.77122 10.948 9.98497C11.1643 10.28 11.1655 10.895 11.1655 10.9537C11.1843 11.2662 11.263 12.7725 10.8405 13.0075C10.7871 13.0363 10.7275 13.0518 10.6668 13.0525C10.343 13.0525 9.93926 12.5825 9.28051 11.425C8.91928 10.7937 8.68357 10.2246 8.5883 9.99463C8.57643 9.96596 8.56674 9.94256 8.55926 9.92497C8.50176 9.78872 8.41926 9.63497 8.16676 9.63497H6.27301C6.06176 9.63497 5.86801 9.75622 5.96176 9.98247C5.97426 10.015 7.46176 13.5125 9.11426 15.2562C10.4643 16.68 11.988 16.7825 12.2805 16.7825H13.1393C13.298 16.7825 13.523 16.6187 13.523 16.3337C13.523 15.4212 13.8305 15.0787 14.0705 15.0012C14.1089 14.9887 14.1489 14.9824 14.1893 14.9825C14.5068 14.9825 14.8218 15.3475 15.1855 15.77L15.1869 15.7716C15.4302 16.0548 15.6797 16.3453 15.933 16.5225C16.263 16.75 16.5355 16.7837 16.6655 16.7837H18.5405C18.643 16.7762 18.943 16.6912 19.0305 16.5187C19.083 16.415 19.058 16.2762 18.9518 16.0975L18.9499 16.0936C18.9475 16.0882 18.9439 16.0803 18.938 16.0725Z" fill="white"/>
</svg>
