<svg width="17" height="18" viewBox="0 0 17 18" fill="none" xmlns="http://www.w3.org/2000/svg">
<path d="M12.2584 17.3333C5.49927 17.3333 0 11.834 0 5.07482C0.00255584 3.91543 0.426043 2.79641 1.19173 1.92582C1.95741 1.05522 3.01318 0.4923 4.16276 0.341705C4.45581 0.309212 4.75159 0.370911 5.00721 0.517855C5.26283 0.664798 5.465 0.889345 5.5844 1.15893L7.29547 5.15144C7.38422 5.35867 7.41981 5.5848 7.399 5.80928C7.37819 6.03376 7.30163 6.24948 7.17629 6.43687L5.76316 8.59912C6.40306 9.89774 7.45742 10.9461 8.75967 11.5786L10.8964 10.157C11.0836 10.0308 11.2998 9.9544 11.5248 9.93504C11.7497 9.91567 11.9758 9.95397 12.1818 10.0463L16.1743 11.7489C16.4439 11.8683 16.6685 12.0704 16.8154 12.326C16.9623 12.5817 17.024 12.8774 16.9915 13.1705C16.841 14.3201 16.278 15.3758 15.4074 16.1415C14.5368 16.9072 13.4178 17.3307 12.2584 17.3333ZM4.33301 1.69524C3.51149 1.80085 2.75662 2.20227 2.20975 2.82436C1.66288 3.44645 1.3615 4.24653 1.36205 5.07482C1.3643 7.96403 2.51303 10.7343 4.55601 12.7772C6.59899 14.8202 9.36922 15.969 12.2584 15.9712C13.0867 15.9718 13.8868 15.6704 14.5089 15.1235C15.131 14.5766 15.5324 13.8218 15.638 13.0002L11.6455 11.2977L9.51731 12.7193C9.32149 12.8488 9.09553 12.9254 8.86136 12.9418C8.62719 12.9582 8.39276 12.9138 8.1808 12.813C6.59482 12.0458 5.31193 10.7689 4.53732 9.1865C4.43519 8.97526 4.38936 8.74122 4.40428 8.50706C4.41919 8.2729 4.49435 8.04657 4.62245 7.84999L6.04409 5.68774L4.33301 1.69524Z" fill="white"/>
</svg>
