<svg width="17" height="18" viewBox="0 0 17 18" fill="none" xmlns="http://www.w3.org/2000/svg">
<path d="M12.2584 17.3333C5.49927 17.3333 0 11.8341 0 5.07491C0.00255584 3.91551 0.426043 2.79649 1.19173 1.9259C1.95741 1.05531 3.01318 0.492384 4.16276 0.341789C4.45581 0.309296 4.75159 0.370995 5.00721 0.517939C5.26283 0.664882 5.465 0.889429 5.5844 1.15902L7.29547 5.15152C7.38422 5.35876 7.41981 5.58488 7.399 5.80936C7.37819 6.03384 7.30163 6.24957 7.17629 6.43695L5.76316 8.5992C6.40306 9.89783 7.45742 10.9462 8.75967 11.5787L10.8964 10.157C11.0836 10.0309 11.2998 9.95448 11.5248 9.93512C11.7497 9.91576 11.9758 9.95405 12.1818 10.0464L16.1743 11.7489C16.4439 11.8683 16.6685 12.0705 16.8154 12.3261C16.9623 12.5817 17.024 12.8775 16.9915 13.1706C16.841 14.3202 16.278 15.3759 15.4074 16.1416C14.5368 16.9073 13.4178 17.3308 12.2584 17.3333ZM4.33301 1.69532C3.51149 1.80093 2.75662 2.20236 2.20975 2.82444C1.66288 3.44653 1.3615 4.24662 1.36205 5.07491C1.3643 7.96411 2.51303 10.7343 4.55601 12.7773C6.59899 14.8203 9.36922 15.969 12.2584 15.9713C13.0867 15.9718 13.8868 15.6705 14.5089 15.1236C15.131 14.5767 15.5324 13.8218 15.638 13.0003L11.6455 11.2978L9.51731 12.7194C9.32149 12.8489 9.09553 12.9255 8.86136 12.9419C8.62719 12.9583 8.39276 12.9139 8.1808 12.813C6.59482 12.0459 5.31193 10.769 4.53732 9.18659C4.43519 8.97535 4.38936 8.74131 4.40428 8.50715C4.41919 8.27299 4.49435 8.04665 4.62245 7.85008L6.04409 5.68783L4.33301 1.69532Z" fill="#BD6D6E"/>
</svg>
