<svg width="68" height="68" viewBox="0 0 68 68" fill="none" xmlns="http://www.w3.org/2000/svg">
<circle cx="34" cy="34" r="34" fill="#CDADD4"/>
<path d="M9.77664 34.2332C9.79473 33.5403 9.93503 32.8634 10.1975 32.2025C10.471 31.531 10.8548 30.9234 11.3488 30.3798C11.8432 29.8255 12.4411 29.3884 13.1426 29.0686C13.8443 28.7382 14.6378 28.573 15.5229 28.573C16.5679 28.573 17.463 28.8021 18.2082 29.2605C18.964 29.7189 19.5189 30.3158 19.873 31.0513L18.147 32.2185C17.9661 31.7922 17.7243 31.4564 17.4215 31.2112C17.1189 30.9554 16.7929 30.7795 16.4435 30.6836C16.0944 30.577 15.7492 30.5237 15.408 30.5237C14.8534 30.5237 14.3653 30.6356 13.9436 30.8594C13.5325 31.0833 13.1836 31.3764 12.8969 31.7389C12.6102 32.1013 12.3917 32.5063 12.2414 32.954C12.1017 33.4017 12.0261 33.8495 12.0144 34.2972C12.0013 34.7982 12.0686 35.2832 12.2163 35.7522C12.3643 36.2105 12.5776 36.6209 12.856 36.9834C13.1454 37.3351 13.49 37.6176 13.8896 37.8308C14.3002 38.0333 14.7508 38.1346 15.2413 38.1346C15.5932 38.1346 15.952 38.076 16.3176 37.9587C16.6832 37.8415 17.024 37.6549 17.3399 37.3991C17.6559 37.1433 17.9044 36.8128 18.0856 36.4078L19.866 37.4471C19.6273 38.012 19.2469 38.4917 18.7248 38.8861C18.2133 39.2805 17.6403 39.579 17.0058 39.7815C16.3714 39.984 15.7449 40.0853 15.1264 40.0853C14.316 40.0853 13.5792 39.9201 12.916 39.5896C12.253 39.2485 11.6836 38.8008 11.2075 38.2465C10.7424 37.6816 10.3802 37.0527 10.121 36.3598C9.8728 35.6563 9.758 34.9474 9.77664 34.2332ZM21.0721 39.9894L21.2907 31.6109L23.4341 31.6109L23.3515 34.7768L24.0713 34.7768L26.4253 31.6109L28.7607 31.6109L25.6799 35.6562L28.862 39.9894L26.4146 39.9894L23.9901 36.6636L23.3023 36.6636L23.2155 39.9894L21.0721 39.9894ZM33.624 40.1493C32.9415 40.1493 32.3313 40.0373 31.7932 39.8135C31.2555 39.579 30.8 39.2592 30.4267 38.8541C30.064 38.4491 29.7882 37.9854 29.5992 37.463C29.4102 36.9407 29.3232 36.3918 29.3383 35.8161C29.3536 35.2299 29.4693 34.6756 29.6856 34.1532C29.9018 33.6309 30.2018 33.1672 30.5857 32.7622C30.9801 32.3571 31.4522 32.0427 32.0019 31.8188C32.5519 31.5843 33.1681 31.467 33.8506 31.467C34.5331 31.467 35.1378 31.5843 35.6649 31.8188C36.2029 32.0427 36.6586 32.3571 37.0319 32.7622C37.4052 33.1672 37.6811 33.6309 37.8594 34.1532C38.0483 34.6756 38.1352 35.2299 38.1199 35.8161C38.1049 36.3918 37.9892 36.9407 37.773 37.463C37.5674 37.9854 37.2674 38.4491 36.8729 38.8541C36.4891 39.2592 36.0222 39.579 35.4722 39.8135C34.9226 40.0373 34.3065 40.1493 33.624 40.1493ZM31.5457 35.8161C31.5329 36.3065 31.6174 36.7435 31.7994 37.1273C31.9816 37.5004 32.2352 37.7935 32.5602 38.0067C32.8852 38.2199 33.2557 38.3265 33.6716 38.3265C34.0768 38.3265 34.4475 38.2199 34.7836 38.0067C35.12 37.7828 35.3891 37.4844 35.5908 37.1113C35.8034 36.7275 35.9161 36.2905 35.9289 35.8002C35.9414 35.3205 35.8514 34.8888 35.6588 34.505C35.4768 34.1213 35.2234 33.8228 34.8984 33.6096C34.5733 33.3964 34.2082 33.2898 33.803 33.2898C33.3871 33.2898 33.011 33.4017 32.6745 33.6256C32.3384 33.8388 32.0694 34.1373 31.8674 34.521C31.6657 34.8941 31.5585 35.3258 31.5457 35.8161ZM44.4762 40.1493C43.8257 40.1493 43.2536 40.0054 42.7599 39.7176C42.2772 39.4191 41.9037 39.0193 41.6395 38.5183L41.5122 43.3951L39.3688 43.3951L39.6764 31.6109L41.5479 31.6109L41.5103 33.05C41.843 32.5596 42.2583 32.1759 42.756 31.8987C43.2541 31.6109 43.8177 31.467 44.4468 31.467C45.012 31.467 45.5263 31.579 45.9896 31.8028C46.4637 32.0267 46.8714 32.3411 47.2127 32.7462C47.5543 33.1406 47.8143 33.599 47.9926 34.1213C48.1818 34.6329 48.2687 35.1872 48.2531 35.7842C48.232 36.5943 48.0528 37.3298 47.7156 37.9907C47.3891 38.6516 46.9435 39.1792 46.3787 39.5736C45.8248 39.9574 45.1906 40.1493 44.4762 40.1493ZM43.8039 38.3265C44.1345 38.3265 44.4349 38.2572 44.7051 38.1186C44.9753 37.98 45.2095 37.7935 45.4075 37.559C45.6165 37.3138 45.7729 37.042 45.8767 36.7435C45.9914 36.4344 46.0531 36.1146 46.0617 35.7842C46.0709 35.4324 46.0207 35.1073 45.9112 34.8088C45.8123 34.5103 45.6592 34.2492 45.4518 34.0253C45.2446 33.7908 44.9987 33.6096 44.7142 33.4817C44.4402 33.3538 44.138 33.2898 43.8074 33.2898C43.6048 33.2898 43.3959 33.3271 43.1807 33.4017C42.9764 33.4657 42.7766 33.5616 42.5813 33.6896C42.386 33.8175 42.2115 33.9667 42.0578 34.1373C41.9147 34.3078 41.8085 34.4944 41.7392 34.6969L41.6879 36.6636C41.8078 36.9727 41.9711 37.2552 42.1777 37.511C42.3949 37.7668 42.6456 37.9694 42.9296 38.1186C43.2139 38.2572 43.5053 38.3265 43.8039 38.3265ZM53.4624 40.1493C52.7799 40.1493 52.1696 40.0373 51.6316 39.8135C51.0939 39.579 50.6384 39.2592 50.265 38.8541C49.9024 38.4491 49.6266 37.9854 49.4376 37.463C49.2486 36.9407 49.1616 36.3918 49.1766 35.8161C49.1919 35.2299 49.3077 34.6756 49.524 34.1532C49.7402 33.6309 50.0402 33.1672 50.424 32.7622C50.8185 32.3571 51.2906 32.0427 51.8403 31.8188C52.3902 31.5843 53.0065 31.467 53.6889 31.467C54.3714 31.467 54.9762 31.5843 55.5033 31.8188C56.0413 32.0427 56.497 32.3571 56.8703 32.7622C57.2436 33.1672 57.5194 33.6309 57.6977 34.1532C57.8867 34.6756 57.9736 35.2299 57.9583 35.8161C57.9432 36.3918 57.8276 36.9407 57.6114 37.463C57.4058 37.9854 57.1058 38.4491 56.7113 38.8541C56.3275 39.2592 55.8606 39.579 55.3106 39.8135C54.7609 40.0373 54.1448 40.1493 53.4624 40.1493ZM51.384 35.8161C51.3712 36.3065 51.4558 36.7435 51.6377 37.1273C51.82 37.5004 52.0736 37.7935 52.3986 38.0067C52.7236 38.2199 53.094 38.3265 53.5099 38.3265C53.9152 38.3265 54.2858 38.2199 54.622 38.0067C54.9584 37.7828 55.2274 37.4844 55.4291 37.1113C55.6418 36.7275 55.7545 36.2905 55.7673 35.8002C55.7798 35.3205 55.6897 34.8888 55.4972 34.505C55.3152 34.1213 55.0617 33.8228 54.7367 33.6096C54.4117 33.3964 54.0466 33.2898 53.6414 33.2898C53.2255 33.2898 52.8493 33.4017 52.5129 33.6256C52.1768 33.8388 51.9077 34.1373 51.7058 34.521C51.5041 34.8941 51.3968 35.3258 51.384 35.8161Z" fill="white"/>
</svg>
